<?xml version="1.0" encoding="UTF-8" standalone="no"?>
<svg
   width="4.25mm"
   height="5mm"
   viewBox="0 0 4.25 5"
   version="1.1"
   id="svg1"
   xml:space="preserve"
   xmlns="http://www.w3.org/2000/svg"
   xmlns:svg="http://www.w3.org/2000/svg"><defs
     id="defs1" /><g
     id="layer1"><path
       id="path1"
       style="fill:#ffffff"
       d="M 1.62484,0 C 1.48734,0 1.36979,0.0494 1.27189,0.14728 1.17399,0.24518 1.12513,0.36273 1.12513,0.50023 V 1.00046 H 0.49984 c -0.1375,0 -0.25505,0.0489 -0.35295,0.14676 C 0.04899,1.24512 1.3e-4,1.36267 1.3e-4,1.50017 v 2.99981 c 0,0.1375 0.0489,0.25557 0.14676,0.35347 0.0979,0.0979 0.21545,0.14676 0.35295,0.14676 h 2.24999 c 0.1375,0 0.25557,-0.0489 0.35347,-0.14676 C 3.2012,4.75555 3.25006,4.63748 3.25006,4.49998 V 4.00027 h 0.49971 c 0.1375,0 0.25557,-0.0489 0.35347,-0.14676 C 4.20114,3.75561 4.25,3.63754 4.25,3.50004 V 0.50023 C 4.25,0.36273 4.2011,0.24518 4.10324,0.14728 4.00534,0.04938 3.88727,0 3.74977,0 Z m 0,0.50023 H 3.74977 V 3.50004 H 3.25006 V 1.50017 C 3.25006,1.36267 3.20116,1.24512 3.1033,1.14722 3.0054,1.04932 2.88733,1.00046 2.74983,1.00046 H 1.62484 Z m -1.125,0.99994 H 2.74983 V 4.49998 H 0.49984 Z" />
   </g>
</svg>
