<?xml version="1.0" encoding="UTF-8" standalone="no"?>
<svg
   width="500mm"
   height="138.74158mm"
   viewBox="0 0 500 138.74158"
   version="1.1"
   id="svg1"
   xmlns="http://www.w3.org/2000/svg"><defs
     id="defs1" /><g
     id="layer1"><path
       id="path1"
       d="M 73.299402 0 L 73.299402 44.50116 L 0 44.50116 L 0 47.120121 L 73.299402 47.120121 L 73.299402 91.621281 L 0 91.621281 L 0 94.240243 L 73.299402 94.240243 L 73.299402 138.7414 L 75.918363 138.7414 L 75.918363 94.240243 L 149.21208 94.240243 L 149.21208 138.7414 L 151.83104 138.7414 L 151.83104 94.240243 L 225.13044 94.240243 L 225.13044 91.621281 L 151.83104 91.621281 L 151.83104 47.120121 L 225.13044 47.120121 L 225.13044 44.50116 L 151.83104 44.50116 L 151.83104 0 L 149.21208 0 L 149.21208 44.50116 L 75.918363 44.50116 L 75.918363 0 L 73.299402 0 z M 98.087553 6.6342204 C 95.981615 6.6342204 94.024872 7.0294345 92.211426 7.819161 C 90.397979 8.6088875 88.802446 9.719081 87.427738 11.152291 C 86.053028 12.585498 84.970634 14.251307 84.180908 16.152502 C 83.420431 18.024447 83.039376 20.057154 83.039376 22.250838 C 83.039376 24.56152 83.392627 26.683831 84.094609 28.614274 C 84.825835 30.544718 85.846428 32.224171 87.162638 33.657377 C 88.478849 35.061337 90.031904 36.143729 91.816101 36.904207 C 93.600299 37.664689 95.557558 38.04574 97.692745 38.04574 C 99.125956 38.04574 100.54744 37.871697 101.9514 37.520707 C 103.38461 37.140461 104.66884 36.62733 105.80956 35.98385 C 106.97953 35.340372 107.90153 34.625388 108.57425 33.835661 L 106.20437 29.972331 C 105.5316 30.645066 104.78834 31.228477 103.96936 31.725712 C 103.15039 32.222951 102.27036 32.603995 101.33438 32.867244 C 100.39841 33.130476 99.448099 33.262052 98.482878 33.262052 C 96.903424 33.262052 95.453616 33.012567 94.137406 32.515328 C 92.850445 31.988855 91.74025 31.246059 90.804277 30.280839 C 89.868305 29.315616 89.139163 28.157778 88.612679 26.812317 C 88.115444 25.437609 87.865955 23.91804 87.865955 22.250838 C 87.865955 20.671385 88.129592 19.22158 88.656087 17.905367 C 89.182562 16.559909 89.897555 15.40775 90.804277 14.442529 C 91.740254 13.477306 92.822645 12.72884 94.051107 12.202356 C 95.30882 11.646615 96.654345 11.368815 98.087553 11.368815 C 98.994274 11.368815 99.888972 11.514532 100.76646 11.807031 C 101.67318 12.099519 102.54805 12.542389 103.39627 13.127364 C 104.27375 13.683105 105.13962 14.38392 105.98785 15.232145 L 109.14269 11.942424 C 108.41147 10.918704 107.46115 10.010353 106.29119 9.2206258 C 105.15047 8.4016509 103.86623 7.7705896 102.43302 7.3318522 C 101.02906 6.8638681 99.579259 6.6342204 98.087553 6.6342204 z M 19.025712 6.8936361 L 7.1318644 37.607524 L 11.958443 37.607524 L 14.864209 29.972331 L 27.710453 29.972331 L 30.605367 37.607524 L 35.654154 37.607524 L 23.852291 6.8936361 L 19.025712 6.8936361 z M 41.048657 6.8936361 L 41.048657 37.607524 L 54.300562 37.607524 C 55.909264 37.607524 57.339744 37.419298 58.597457 37.039083 C 59.855169 36.629591 60.922888 36.041013 61.800362 35.280534 C 62.707083 34.520063 63.380114 33.583901 63.818844 32.472437 C 64.286828 31.331722 64.52216 30.033323 64.52216 28.570866 C 64.52216 27.137659 64.230715 25.861893 63.645728 24.750427 C 63.089997 23.638962 62.299565 22.71645 61.275846 21.985221 C 60.606857 21.488256 59.859719 21.092225 59.040841 20.795113 C 60.038204 20.334113 60.855621 19.695912 61.492371 18.8743 C 62.428345 17.704335 62.899003 16.282846 62.899003 14.615645 C 62.899003 12.948444 62.545749 11.546282 61.84377 10.405566 C 61.17104 9.2356088 60.164609 8.3555708 58.819149 7.7705851 C 57.473688 7.1855994 55.822036 6.8936361 53.862345 6.8936361 L 41.048657 6.8936361 z M 115.0245 6.8936361 L 115.0245 37.607524 L 127.04289 37.607524 C 129.23657 37.607524 131.2268 37.240112 133.011 36.508883 C 134.7952 35.777657 136.30111 34.742905 137.52959 33.397445 C 138.78728 32.022736 139.75176 30.399403 140.4245 28.527458 C 141.09727 26.626265 141.43633 24.53227 141.43633 22.250838 C 141.43633 19.969406 141.09727 17.894222 140.4245 16.022278 C 139.75178 14.150332 138.78729 12.527 137.52959 11.152291 C 136.27185 9.7775796 134.7523 8.7235058 132.96811 7.992277 C 131.21316 7.2610489 129.23657 6.8936361 127.04289 6.8936361 L 115.0245 6.8936361 z M 165.18578 6.8936361 L 165.18578 37.607524 L 184.53602 37.607524 L 184.53602 33.046045 L 169.92606 33.046045 L 169.92606 24.139095 L 182.12273 24.139095 L 182.12273 19.577616 L 169.92606 19.577616 L 169.92606 11.460799 L 184.53602 11.460799 L 184.53602 6.8936361 L 165.18578 6.8936361 z M 192.12264 6.8936361 L 192.12264 37.607524 L 196.8624 37.607524 L 196.8624 24.533903 L 210.07142 24.533903 L 210.07142 19.972424 L 196.8624 19.972424 L 196.8624 11.460799 L 212.0408 11.460799 L 212.0408 6.8936361 L 196.8624 6.8936361 L 192.12264 6.8936361 z M 325.31244 10.854635 L 325.31244 15.465206 L 334.00235 15.465206 L 334.00235 41.882198 L 338.78604 41.882198 L 338.78604 15.465206 L 347.74156 15.465206 L 347.74156 10.854635 L 325.31244 10.854635 z M 45.788936 11.460799 L 53.072213 11.460799 C 54.710165 11.460799 55.966597 11.808361 56.844076 12.510347 C 57.721551 13.212327 58.158724 14.224443 58.158724 15.540653 C 58.158724 16.330381 57.956884 17.031718 57.547392 17.645951 C 57.167157 18.260184 56.626217 18.739322 55.924235 19.090308 C 55.2515 19.441288 54.474719 19.621025 53.597245 19.621025 L 45.788936 19.621025 L 45.788936 11.460799 z M 119.76478 11.460799 L 126.82637 11.460799 C 128.37658 11.460799 129.7504 11.705117 130.94963 12.202356 C 132.14884 12.699596 133.17461 13.419741 134.02283 14.355713 C 134.87109 15.29168 135.51058 16.430181 135.94932 17.775659 C 136.38806 19.09187 136.60975 20.583638 136.60975 22.250838 C 136.60975 23.918038 136.38806 25.423449 135.94932 26.768909 C 135.51059 28.114368 134.87106 29.258052 134.02283 30.194023 C 133.20389 31.100744 132.17809 31.802086 130.94963 32.29932 C 129.75041 32.796559 128.37659 33.046045 126.82637 33.046045 L 119.76478 33.046045 L 119.76478 11.460799 z M 21.309294 12.207524 C 21.322594 12.248784 21.333187 12.294384 21.347017 12.337231 L 22.229134 14.967045 C 22.550868 15.932267 22.828161 16.812816 23.062158 17.602543 C 23.325401 18.39227 23.499444 18.885568 23.587191 19.090308 L 25.98446 25.410852 L 16.601571 25.410852 L 18.938896 19.269108 C 19.114381 18.771879 19.330383 18.154971 19.593636 17.423743 C 19.856879 16.663261 20.120526 15.858678 20.383769 15.010453 C 20.676257 14.162224 20.939904 13.357641 21.173901 12.597164 C 21.220181 12.463324 21.265641 12.333214 21.309294 12.207524 z M 284.55576 15.692065 L 282.70471 17.543115 L 334.53824 69.370959 L 282.70471 121.20397 L 284.55576 123.0545 L 336.38877 71.221493 L 388.21661 123.0545 L 390.06715 121.20397 L 338.2393 69.370959 L 390.06715 17.543115 L 388.21661 15.692065 L 336.38877 67.520426 L 284.55576 15.692065 z M 45.788936 24.182503 L 53.81377 24.182503 C 55.012984 24.182503 56.052902 24.356029 56.930375 24.707019 C 57.80785 25.028753 58.480875 25.514093 58.948857 26.157576 C 59.446096 26.801065 59.695581 27.572159 59.695581 28.478882 C 59.695581 29.444105 59.460249 30.282174 58.992265 30.984155 C 58.553538 31.656889 57.908825 32.164341 57.0606 32.515328 C 56.241627 32.866308 55.234676 33.046045 54.035461 33.046045 L 45.788936 33.046045 L 45.788936 24.182503 z M 473.82069 43.191679 A 26.17798 26.17798 0 0 0 447.64193 69.370959 A 26.17798 26.17798 0 0 0 473.82069 95.549723 A 26.17798 26.17798 0 0 0 499.99997 69.370959 A 26.17798 26.17798 0 0 0 473.82069 43.191679 z M 473.82069 45.81064 A 23.560182 23.560182 0 0 1 497.38101 69.370959 A 23.560182 23.560182 0 0 1 473.82069 92.930762 A 23.560182 23.560182 0 0 1 450.26089 69.370959 A 23.560182 23.560182 0 0 1 473.82069 45.81064 z M 75.918363 47.120121 L 149.21208 47.120121 L 149.21208 91.621281 L 75.918363 91.621281 L 75.918363 47.120121 z M 363.87185 53.748657 L 363.87185 72.89891 C 363.87185 75.233518 364.4043 77.330288 365.46813 79.192065 C 366.56157 81.024287 368.05714 82.473147 369.94848 83.53702 C 371.8398 84.571341 373.97814 85.084729 376.37186 85.084729 C 378.76558 85.084729 380.90908 84.571336 382.80041 83.53702 C 384.69173 82.473147 386.17348 81.024287 387.23735 79.192065 C 388.33078 77.330288 388.87704 75.233518 388.87704 72.89891 L 388.87704 53.748657 L 384.30988 53.748657 L 384.30988 72.498417 C 384.30988 74.005569 383.95305 75.366641 383.24379 76.578271 C 382.53458 77.760357 381.57653 78.704515 380.3649 79.413757 C 379.18281 80.123004 377.84946 80.474674 376.37186 80.474674 C 374.98293 80.474674 373.70094 80.123015 372.51886 79.413757 C 371.36633 78.704515 370.43603 77.760357 369.72679 76.578271 C 369.01755 75.366641 368.6607 74.005569 368.6607 72.498417 L 368.6607 53.748657 L 363.87185 53.748657 z M 21.898922 53.754342 C 19.675993 53.754342 17.601316 54.149547 15.670878 54.939282 C 13.740438 55.729008 12.041134 56.839208 10.578682 58.272412 C 9.1454823 59.676367 8.0211181 61.32803 7.2021444 63.229215 C 6.4124196 65.130408 6.0172038 67.177278 6.0172038 69.370959 C 6.0172038 71.593888 6.4124202 73.668569 7.2021444 75.599003 C 8.0211187 77.500196 9.1648083 79.171178 10.627258 80.604382 C 12.08971 82.037585 13.783331 83.161948 15.71377 83.98092 C 17.644208 84.770648 19.719402 85.165861 21.94233 85.165861 C 23.872769 85.165861 25.661162 84.846069 27.299109 84.202612 C 28.966305 83.529877 30.410435 82.593723 31.638896 81.394515 C 32.896605 80.1953 33.875193 78.773806 34.577218 77.13586 C 35.279196 75.468663 35.63245 73.62932 35.63245 71.611133 C 35.63245 71.347901 35.618262 71.084242 35.589042 70.821 C 35.589042 70.52847 35.574844 70.237035 35.545634 69.944568 C 35.516414 69.622886 35.474374 69.297401 35.415926 68.975635 L 21.812105 68.975635 L 21.812105 73.672506 L 30.545939 73.672506 L 30.545939 73.932438 C 30.545939 74.839158 30.324252 75.705555 29.885514 76.524528 C 29.446777 77.314256 28.830392 78.015076 28.040666 78.629309 C 27.250939 79.243542 26.347754 79.728363 25.324036 80.07935 C 24.300322 80.401115 23.217919 80.560974 22.077205 80.560974 C 20.556254 80.560974 19.106957 80.26955 17.732251 79.684542 C 16.386795 79.099574 15.186988 78.294966 14.134021 77.271252 C 13.110306 76.247532 12.305715 75.061369 11.720732 73.715914 C 11.135748 72.341211 10.843783 70.89191 10.843783 69.370959 C 10.843783 67.791508 11.121593 66.341695 11.677323 65.025488 C 12.233054 63.680032 13.009327 62.513708 14.003796 61.519242 C 15.02751 60.524742 16.194351 59.74796 17.510559 59.192253 C 18.856017 58.636533 20.319473 58.359229 21.898922 58.359229 C 22.864134 58.359229 23.828617 58.504967 24.793835 58.797445 C 25.759058 59.089933 26.695731 59.513471 27.60245 60.069202 C 28.538417 60.624933 29.446775 61.325764 30.324247 62.173983 L 33.397445 58.975728 C 32.63697 57.952027 31.653167 57.044173 30.453955 56.254447 C 29.254744 55.464722 27.908695 54.847817 26.416992 54.409082 C 24.954539 53.970346 23.449122 53.754342 21.898922 53.754342 z M 280.52965 53.900586 L 292.76404 71.194104 L 292.76404 84.933317 L 297.5529 84.933317 L 297.5529 71.107804 L 308.90001 53.900586 L 303.40267 53.900586 L 295.24244 66.746313 L 286.2926 53.900586 L 280.52965 53.900586 z M 41.817086 54.013757 L 41.817086 84.727645 L 46.557365 84.727645 L 46.557365 71.697432 L 61.871159 71.697432 L 61.871159 84.727645 L 66.605754 84.727645 L 66.605754 54.013757 L 61.871159 54.013757 L 61.871159 67.135954 L 46.557365 67.135954 L 46.557365 54.013757 L 41.817086 54.013757 z M 90.192944 54.013757 L 90.192944 58.402637 L 95.149231 58.402637 L 95.149231 80.339282 L 90.192944 80.339282 L 90.192944 84.727645 L 104.84631 84.727645 L 104.84631 80.339282 L 99.88951 80.339282 L 99.88951 58.402637 L 104.84631 58.402637 L 104.84631 54.013757 L 90.192944 54.013757 z M 123.75265 54.013757 L 123.75265 58.402637 L 129.36936 58.402637 L 129.36936 74.944263 C 129.36936 76.026484 129.1482 76.990958 128.70946 77.839176 C 128.27072 78.687374 127.65382 79.360401 126.86409 79.857658 C 126.07436 80.32563 125.15753 80.560974 124.10457 80.560974 C 123.57809 80.560974 123.07917 80.513314 122.61112 80.425582 C 122.14307 80.308547 121.67755 80.106717 121.20966 79.81425 C 120.74171 79.521762 120.24267 79.112386 119.71621 78.585901 C 119.21915 78.059406 118.66388 77.358593 118.04964 76.48112 L 115.06223 79.592558 C 115.50097 80.411542 116.02829 81.174162 116.64249 81.876139 C 117.25672 82.548842 117.94391 83.131747 118.70438 83.629004 C 119.49411 84.126244 120.34583 84.507805 121.25255 84.771053 C 122.15924 85.034285 123.1101 85.165861 124.10457 85.165861 C 125.59628 85.165861 126.9418 84.916398 128.14102 84.419137 C 129.36947 83.921898 130.41839 83.235236 131.29586 82.357764 C 132.20255 81.480289 132.88975 80.459177 133.35775 79.289217 C 133.85502 78.090008 134.10396 76.786434 134.10396 75.382479 L 134.10396 58.402637 L 138.84424 58.402637 L 138.84424 54.013757 L 123.75265 54.013757 z M 162.58853 54.013757 L 162.58853 84.727645 L 167.32312 84.727645 L 167.32312 74.657458 L 172.00914 70.117684 L 182.94542 84.727645 L 188.86496 84.727645 L 175.35312 66.870854 L 188.60503 54.013757 L 182.37181 54.013757 L 167.32312 69.067619 L 167.32312 54.013757 L 162.58853 54.013757 z M 194.70336 54.013757 L 194.70336 84.727645 L 213.83191 84.727645 L 213.83191 80.166166 L 199.43847 80.166166 L 199.43847 54.013757 L 194.70336 54.013757 z M 463.69108 55.101546 L 463.69108 59.387073 L 478.52841 59.387073 L 462.61982 80.674662 L 462.61982 83.92666 L 485.02207 83.92666 L 485.02207 79.646301 L 468.73986 79.646301 L 484.56732 58.31582 L 484.56732 55.101546 L 463.69108 55.101546 z M 315.27998 96.859204 L 325.1662 127.88677 L 328.40218 127.88677 L 336.13452 109.03469 L 344.09424 127.88677 L 347.41652 127.88677 L 357.30274 96.859204 L 352.16248 96.859204 L 346.26414 116.13916 C 346.02781 116.90753 345.83838 117.51438 345.69053 117.95766 C 345.57252 118.40101 345.48469 118.77115 345.42543 119.06663 C 345.36683 119.33259 345.30641 119.61523 345.24714 119.91051 C 345.23454 119.97441 345.22302 120.03917 345.20942 120.11101 C 345.05183 119.51562 344.87333 118.93198 344.67354 118.35763 C 344.46663 117.64843 344.21145 116.94038 343.91596 116.23115 L 338.51009 102.22167 L 334.20802 102.22167 L 328.62387 116.23115 C 328.50565 116.55628 328.37112 116.95411 328.22338 117.42694 C 328.07563 117.87018 327.87232 118.51814 327.60636 119.37514 C 327.52786 119.6587 327.43704 119.98241 327.33609 120.34356 C 327.30889 120.18639 327.27968 120.02465 327.24928 119.86193 C 327.13107 119.21178 326.99653 118.57825 326.84878 117.95766 C 326.70103 117.30752 326.53875 116.74736 326.36147 116.27456 L 320.37734 96.859204 L 315.27998 96.859204 z M 98.704569 100.87446 C 96.552162 100.87446 94.563229 101.2632 92.730774 102.04855 C 90.927407 102.83388 89.341543 103.94041 87.974475 105.36566 C 86.636493 106.76181 85.586733 108.41877 84.830481 110.33848 C 84.103318 112.22912 83.742692 114.30862 83.742692 116.57738 C 83.742692 118.84613 84.103309 120.93997 84.830481 122.85968 C 85.586733 124.75032 86.636493 126.41296 87.974475 127.83819 C 89.341543 129.23435 90.927407 130.32139 92.730774 131.10673 C 94.563229 131.89206 96.552162 132.28598 98.704569 132.28598 C 100.85697 132.28598 102.83727 131.89211 104.64064 131.10673 C 106.4731 130.3214 108.05894 129.22003 109.39694 127.79478 C 110.764 126.36953 111.80808 124.70742 112.53525 122.81679 C 113.29147 120.89707 113.67161 118.81705 113.67161 116.57738 C 113.67161 114.33771 113.29149 112.27251 112.53525 110.38189 C 111.80812 108.46218 110.764 106.7909 109.39694 105.36566 C 108.05894 103.94041 106.4731 102.83388 104.64064 102.04855 C 102.83727 101.26321 100.85697 100.87446 98.704569 100.87446 z M 204.07592 100.87446 C 202.5925 100.87446 201.21075 101.09289 199.93095 101.5292 C 198.65113 101.93639 197.53028 102.52928 196.57043 103.31462 C 195.63965 104.07087 194.89371 104.97328 194.34111 106.0204 C 193.81756 107.06752 193.55666 108.20219 193.55666 109.42381 C 193.55666 110.67453 193.74647 111.80971 194.12458 112.82774 C 194.50269 113.81663 195.08699 114.70477 195.87228 115.49011 C 196.65761 116.27544 197.63111 116.93077 198.79458 117.45433 C 199.95804 117.97778 201.32548 118.39476 202.89614 118.71472 C 203.88513 118.88928 204.75886 119.10768 205.5151 119.36946 C 206.27142 119.60202 206.92103 119.883 207.47364 120.203 C 208.05541 120.52299 208.52087 120.86927 208.86994 121.24738 C 209.24805 121.6256 209.52904 122.04808 209.70348 122.51345 C 209.87804 122.97879 209.96289 123.47245 209.96289 123.99605 C 209.96289 124.78138 209.702 125.47968 209.17845 126.09049 C 208.6549 126.70127 207.94279 127.18062 207.04111 127.52968 C 206.13945 127.87868 205.1321 128.05472 204.02682 128.05472 C 202.22346 128.05472 200.6714 127.66023 199.36251 126.87494 C 198.05361 126.08961 196.68619 124.67973 195.26095 122.64368 L 192.03066 126.35559 C 192.93232 127.6645 193.95346 128.76535 195.08783 129.66702 C 196.25131 130.53958 197.52813 131.19493 198.92429 131.63124 C 200.34952 132.06757 201.89296 132.28598 203.55088 132.28598 C 205.84872 132.28598 207.82335 131.90585 209.48127 131.14962 C 211.13922 130.36429 212.42172 129.26344 213.32341 127.83819 C 214.22507 126.41296 214.67579 124.72218 214.67579 122.77338 C 214.67579 121.72626 214.44348 120.75328 213.97815 119.8516 C 213.54182 118.94994 212.88653 118.13809 212.01393 117.41092 C 211.14138 116.68381 210.07726 116.05707 208.82653 115.53352 C 207.57581 114.98086 206.15162 114.52966 204.55186 114.18063 C 203.41749 113.94786 202.44449 113.68644 201.63007 113.39566 C 200.81573 113.07566 200.15984 112.72415 199.66533 112.34611 C 199.2 111.939 198.85424 111.48771 198.62147 110.99323 C 198.38869 110.46968 198.26955 109.90492 198.26955 109.2941 C 198.26955 108.45056 198.50237 107.72418 198.9677 107.11336 C 199.46215 106.47348 200.13129 105.97981 200.97481 105.63076 C 201.81825 105.28176 202.80612 105.10625 203.94052 105.10625 C 204.92941 105.10625 205.86 105.28166 206.7326 105.63076 C 207.60515 105.95065 208.40788 106.4443 209.13504 107.11336 C 209.86215 107.75325 210.51747 108.55078 211.09926 109.51063 L 214.41069 106.23693 C 213.74186 105.07322 212.90174 104.09996 211.88371 103.31462 C 210.86568 102.50023 209.70289 101.89304 208.394 101.4858 C 207.08509 101.07857 205.6466 100.87446 204.07592 100.87446 z M 4.4694946 101.30751 L 4.4694946 131.84777 L 9.182902 131.85293 L 9.182902 119.32605 C 9.182902 116.50467 9.111809 114.07883 8.9663778 112.04277 C 8.9133938 111.10226 8.8393825 110.17221 8.7441691 109.25586 L 17.515727 123.08138 L 20.394621 123.08138 L 29.350146 109.24501 C 29.239624 110.24688 29.149403 111.25071 29.079362 112.2593 C 28.963018 114.35351 28.906246 116.70827 28.906246 119.32605 L 28.906246 131.85293 L 33.613969 131.85293 L 33.613969 101.30751 L 29.252478 101.30751 L 19.10116 117.59489 L 9.0960856 101.30751 L 4.4694946 101.30751 z M 42.169002 101.30751 L 42.169002 131.84777 L 46.881893 131.84777 L 46.881893 119.15345 C 46.881893 118.89168 46.868011 118.58778 46.839001 118.23878 C 46.839001 117.88978 46.818919 117.45285 46.789909 116.9293 C 46.760799 116.37664 46.704079 115.67888 46.616793 114.83537 C 46.558573 113.96281 46.473721 112.91302 46.357377 111.69137 C 46.293817 110.78018 46.213608 109.7313 46.119149 108.54221 L 63.894808 131.84777 L 68.212891 131.84777 L 68.212891 101.30751 L 63.505168 101.30751 L 63.505168 111.34514 C 63.505168 112.62495 63.519576 113.85883 63.548576 115.05138 C 63.577786 116.24393 63.605765 117.39341 63.634875 118.49871 C 63.692985 119.5749 63.749773 120.61036 63.807992 121.5993 C 63.895212 122.55919 63.980658 123.47537 64.067924 124.34797 C 64.093364 124.59372 64.121206 124.83191 64.149056 125.06782 L 46.400269 101.30751 L 42.169002 101.30751 z M 120.04073 101.30751 L 120.04073 131.84777 L 124.75363 131.84777 L 124.75363 120.15959 L 132.47563 120.15959 C 134.13357 120.15959 135.63402 119.737 136.972 118.89352 C 138.33908 118.02096 139.42612 116.87193 140.24054 115.4467 C 141.05497 114.02145 141.4632 112.43559 141.4632 110.6904 C 141.4632 108.94519 141.05497 107.35935 140.24054 105.9341 C 139.42612 104.50887 138.33908 103.38801 136.972 102.57358 C 135.63402 101.73007 134.13357 101.30751 132.47563 101.30751 L 120.04073 101.30751 z M 163.80034 101.30751 L 163.80034 131.84777 L 168.51375 131.84777 L 168.51375 120.37611 L 175.48851 120.37611 L 181.95479 131.84777 L 187.66917 131.89686 L 180.57502 119.64593 C 180.9413 119.49242 181.29832 119.31244 181.64628 119.11056 C 183.10061 118.238 184.26388 117.08899 185.1365 115.66374 C 186.00905 114.23851 186.44598 112.69508 186.44598 111.03715 C 186.44598 109.2047 186.00913 107.56207 185.1365 106.10774 C 184.26388 104.62328 183.08681 103.46049 181.60339 102.61699 C 180.14907 101.74439 178.54888 101.30751 176.80368 101.30751 L 163.80034 101.30751 z M 98.704569 105.45248 C 100.18798 105.45248 101.54108 105.73294 102.76272 106.2855 C 104.01344 106.83816 105.09183 107.62134 105.99353 108.63936 C 106.89519 109.62836 107.59295 110.80591 108.08746 112.173 C 108.61102 113.51099 108.87191 114.97761 108.87191 116.57738 C 108.87191 118.17714 108.61102 119.66379 108.08746 121.03086 C 107.59302 122.36884 106.89521 123.54646 105.99353 124.56449 C 105.09186 125.55348 104.01344 126.32234 102.76272 126.87494 C 101.54108 127.4275 100.18798 127.7028 98.704569 127.7028 C 97.221153 127.7028 95.853734 127.42739 94.603011 126.87494 C 93.381376 126.32227 92.308654 125.55344 91.377885 124.56449 C 90.476212 123.5755 89.778434 122.39792 89.283956 121.03086 C 88.789471 119.66379 88.542399 118.17714 88.542399 116.57738 C 88.542399 114.94853 88.789471 113.46757 89.283956 112.12959 C 89.778431 110.76252 90.476201 109.5849 91.377885 108.59596 C 92.308658 107.60696 93.381376 106.8381 94.603011 106.2855 C 95.853734 105.73294 97.221153 105.45248 98.704569 105.45248 z M 124.75363 105.84729 L 132.38882 105.84729 C 133.17415 105.84729 133.8863 106.0657 134.52616 106.50203 C 135.16605 106.93836 135.67408 107.51744 136.05216 108.24456 C 136.45938 108.97167 136.66349 109.78872 136.66349 110.6904 C 136.66349 111.59207 136.45938 112.41771 136.05216 113.17397 C 135.67405 113.90118 135.16604 114.49975 134.52616 114.96508 C 133.88627 115.40141 133.17414 115.61982 132.38882 115.61982 L 124.75363 115.61982 L 124.75363 105.84729 z M 168.51375 105.84729 L 176.01871 105.84729 C 177.09491 105.84729 178.0541 106.0657 178.89761 106.50203 C 179.77027 106.93836 180.4399 107.54554 180.90524 108.33086 C 181.39979 109.08708 181.64628 109.9752 181.64628 110.99323 C 181.64628 111.89489 181.45646 112.72623 181.07835 113.48248 C 180.70024 114.20959 180.17797 114.7882 179.50894 115.22449 C 178.83994 115.63171 178.08541 115.83634 177.24189 115.83634 L 168.51375 115.83634 L 168.51375 105.84729 z " />
   </g>
</svg>
