<?xml version="1.0" encoding="UTF-8" standalone="no"?>
<svg
   width="5mm"
   height="5mm"
   viewBox="0 0 5 5"
   version="1.1"
   id="svg1"
   xml:space="preserve"
   xmlns="http://www.w3.org/2000/svg"
   xmlns:svg="http://www.w3.org/2000/svg"><defs
     id="defs1" /><g
     id="layer1"><path
       id="path1"
       style="fill:#ffffff"
       d="M 2.5001058 0 C 2.1542725 1.9583101e-17 1.8291382 0.065637207 1.5249715 0.19688721 C 1.2208049 0.32813721 0.95622152 0.50622152 0.73122152 0.73122152 C 0.50622152 0.95622152 0.32813721 1.2208049 0.19688721 1.5249715 C 0.065637207 1.8291382 0 2.1542725 0 2.5001058 C 1.9583101e-17 2.8459391 0.065637207 3.1710734 0.19688721 3.4752401 C 0.32813721 3.7794067 0.50622152 4.0439901 0.73122152 4.2689901 C 0.95622152 4.4939901 1.2208049 4.6720744 1.5249715 4.8033244 C 1.8291382 4.9345744 2.1542725 5.0002116 2.5001058 5.0002116 C 2.8459391 5.0002116 3.1710734 4.9345744 3.4752401 4.8033244 C 3.7794067 4.6720744 4.0439901 4.4939901 4.2689901 4.2689901 C 4.4939901 4.0439901 4.6720744 3.7794067 4.8033244 3.4752401 C 4.9345744 3.1710734 5.0002116 2.8459391 5.0002116 2.5001058 C 5.0002116 2.1542725 4.9345744 1.8291382 4.8033244 1.5249715 C 4.6720744 1.2208049 4.4939901 0.95622152 4.2689901 0.73122152 C 4.0439901 0.50622152 3.7794067 0.32813721 3.4752401 0.19688721 C 3.1710734 0.065637207 2.8459391 0 2.5001058 0 z M 2.5001058 0.50022786 C 3.0584391 0.50022786 3.5311239 0.69357096 3.9186239 1.081071 C 4.3061239 1.468571 4.4999837 1.9417725 4.4999837 2.5001058 C 4.4999837 3.0584391 4.3061239 3.5311239 3.9186239 3.9186239 C 3.5311239 4.3061239 3.0584391 4.4999837 2.5001058 4.4999837 C 1.9417725 4.4999837 1.468571 4.3061239 1.081071 3.9186239 C 0.69357096 3.5311239 0.50022786 3.0584391 0.50022786 2.5001058 C 0.50022786 1.9417725 0.69357096 1.468571 1.081071 1.081071 C 1.468571 0.69357096 1.9417725 0.50022786 2.5001058 0.50022786 z M 2.5249105 0.99993896 C 2.2874105 0.99993896 2.0945679 1.0625244 1.9466512 1.1875244 C 1.7987345 1.3125244 1.6959595 1.4626261 1.6376261 1.6376261 L 2.0500041 1.7998901 C 2.0708374 1.7248901 2.1176473 1.6439941 2.190564 1.5564941 C 2.2634806 1.4689941 2.3749105 1.425236 2.5249105 1.425236 C 2.6582438 1.425236 2.7584839 1.4613566 2.8251506 1.5342733 C 2.8918172 1.6071899 2.9248861 1.6875854 2.9248861 1.7750854 C 2.9248861 1.8584188 2.8999552 1.936263 2.8499552 2.0091797 C 2.7999552 2.0820964 2.7373698 2.1497681 2.6623698 2.2122681 C 2.4790365 2.3747681 2.3665894 2.4979045 2.3249227 2.5812378 C 2.283256 2.6645711 2.2623942 2.8167074 2.2623942 3.0375407 L 2.7248983 3.0375407 C 2.7248983 2.9000407 2.7406738 2.7916626 2.7719238 2.7124959 C 2.8031738 2.6333293 2.8917074 2.5249512 3.0375407 2.3874512 C 3.145874 2.2791178 3.2313558 2.175826 3.2938558 2.0779093 C 3.3563558 1.9799927 3.3873901 1.8624593 3.3873901 1.7249593 C 3.3873901 1.491626 3.3019084 1.3125244 3.131075 1.1875244 C 2.9602417 1.0625244 2.7582438 0.99993896 2.5249105 0.99993896 z M 2.4877035 3.3749878 C 2.4002035 3.3749878 2.3259115 3.4050049 2.2654948 3.4654215 C 2.2050781 3.5258382 2.175061 3.6001302 2.175061 3.6876302 C 2.175061 3.7751302 2.2050781 3.8489054 2.2654948 3.9093221 C 2.3259115 3.9697388 2.4002035 3.9997559 2.4877035 3.9997559 C 2.5752035 3.9997559 2.6489787 3.9697388 2.7093953 3.9093221 C 2.769812 3.8489054 2.7998291 3.7751302 2.7998291 3.6876302 C 2.7998291 3.6001302 2.769812 3.5258382 2.7093953 3.4654215 C 2.6489787 3.4050049 2.5752035 3.3749878 2.4877035 3.3749878 z " />
   </g>
</svg>
