<?xml version="1.0" encoding="UTF-8" standalone="no"?>
<svg
   width="100mm"
   height="100mm"
   viewBox="0 0 100 100"
   version="1.1"
   id="svg1"
   xml:space="preserve"
   xmlns="http://www.w3.org/2000/svg"
   xmlns:svg="http://www.w3.org/2000/svg"><defs
     id="defs1" /><g
     id="layer1"><path
       id="path1"
       style="fill:#fcb33b"
       d="M 19.983436,47.178738 A 8.0816557,8.0816557 0 0 0 11.902,55.260174 V 91.91827 a 8.0816557,8.0816557 0 0 0 8.081436,8.08182 h 30.01671 V 47.178738 Z" /><path
       id="path2"
       style="fill:#f69838"
       d="m 80.016586,47.178738 a 8.0816557,8.0816557 0 0 1 8.08144,8.081436 V 91.91827 a 8.0816557,8.0816557 0 0 1 -8.08144,8.08182 H 49.999876 V 47.178738 Z" /><path
       id="path3"
       style="fill:#c4cad9"
       d="M 49.999824,0 C 33.809254,-1.2978984e-4 20.684871,13.124953 20.685,29.315523 V 47.178516 H 32.435704 V 29.315523 h 0.0021 l -0.0021,-0.01912 C 32.435597,19.595862 40.299466,11.731993 50.000007,11.7321 Z" /><path
       id="path4"
       style="fill:#bbc2cd"
       d="m 50.000156,0 c 16.19057,-1.2757972e-4 29.31465,13.124954 29.31452,29.315523 v 17.862993 h -11.7507 V 29.315523 h -0.002 l 0.002,-0.01912 c 1.1e-4,-9.70054 -7.86376,-17.564408 -17.5643,-17.564303 z" /><path
       id="path5"
       style="fill:#5c5f66"
       d="M 50.000049 59.009835 A 8.7537756 8.7537756 0 0 0 41.246061 67.763306 A 8.7537756 8.7537756 0 0 0 47.107719 76.00673 L 47.104618 76.024817 L 47.104618 85.408223 A 2.8952525 2.8952525 0 0 0 50.000049 88.303137 L 50.000049 82.512793 L 50.000049 76.517293 L 50.000049 59.009835 z " /><path
       id="path6"
       style="fill:#53565c"
       d="m 49.999776,59.009833 a 8.7537756,8.7537756 0 0 1 8.75399,8.753471 8.7537756,8.7537756 0 0 1 -5.86166,8.243424 l 0.003,0.01809 v 9.383407 a 2.8952525,2.8952525 0 0 1 -2.89543,2.894914 v -5.790345 -5.995499 z" />
   </g>
</svg>
