<?xml version="1.0" encoding="UTF-8" standalone="no"?>
<svg
   width="338.25403mm"
   height="200mm"
   viewBox="0 0 338.25403 200"
   version="1.1"
   id="svg1"
   xmlns="http://www.w3.org/2000/svg"><defs
     id="defs1" /><g
     id="layer1"><path
       id="path1"
       d="m 140.40376,0 v 3.0109898 h 23.28177 V 0 Z M 25.631309,0.09646191 c -0.420183,0.01218964 -0.8433,0.06726947 -1.267785,0.16191819 -1.686469,0.36712231 -3.167238,1.3301423 -4.440693,2.8904124 -1.261984,1.5487975 -1.833816,3.5438702 -1.71909,5.987529 V 22.200021 h -5.508664 v 3.028215 h 5.508664 3.097117 V 8.8124847 c -0.09178,-1.7323584 0.351182,-3.0578028 1.326351,-3.9756087 0.975169,-0.9178059 2.035986,-1.3837801 3.183243,-1.3952527 1.147257,-0.022945 2.150547,0.4257707 3.01099,1.3435767 0.871916,0.9178059 1.153802,2.337602 0.844042,4.2649948 h 3.131567 c 0,-0.080306 -0.0058,-0.5370824 -0.0172,-1.3745825 0,-0.8113263 -0.0224,-1.2574986 -0.06547,-1.3366865 l -0.0035,-0.00345 v -0.00345 C 32.102878,3.7851243 30.984534,2.0431729 29.355428,1.1024219 28.133599,0.39685861 26.891858,0.05989306 25.631309,0.09646191 Z m 44.978816,0.0068899 c -1.227564,0 -1.839673,0.5637713 -1.839673,1.68808359 0,1.1243122 0.612129,1.6846384 1.839673,1.6846384 1.216097,0 1.825885,-0.5603263 1.825885,-1.6846384 0,-1.12431229 -0.609795,-1.68808359 -1.825885,-1.68808359 z m 13.160156,0 V 3.476074 H 107.48269 V 0.10335205 Z m 29.320979,0 V 25.228236 h 22.8029 V 21.631584 H 117.153 V 0.10335205 Z m 20.65319,0 c -0.58513,0 -1.09139,0.23011086 -1.51584,0.68901365 -0.41299,0.44743054 -0.62013,0.98474564 -0.62013,1.61573714 0,0.630991 0.20714,1.1717515 0.62013,1.6191821 0.42447,0.4474305 0.93074,0.6717884 1.51584,0.6717884 0.58513,0 1.08794,-0.2243576 1.51238,-0.6717884 0.42446,-0.4474305 0.63733,-0.9881905 0.63733,-1.6191821 0,-0.630991 -0.21287,-1.1683064 -0.63733,-1.61573714 -0.42446,-0.45890259 -0.92728,-0.68901345 -1.51238,-0.68901365 z m 41.63364,0 V 11.978503 h -4.37179 v 3.682778 h 4.37179 v 9.566955 h 3.88949 V 0.10335205 Z m 12.41948,0 V 3.6311021 h 22.79946 V 0.10335205 Z m 32.89351,0 V 11.220588 h 4.13064 V 0.10335205 Z m 18.13829,0 V 4.6301717 H 242.96 V 0.10335205 Z m 22.53419,0 V 25.228236 h 4.13064 V 0.10335205 Z m 20.24666,0 V 25.228236 h 4.13064 V 0.10335205 Z m 23.91222,0 c -0.75715,0 -1.40146,0.25887463 -1.92923,0.77514037 -0.52773,0.50479362 -0.78893,1.11689462 -0.78893,1.83966682 0,0.7227724 0.2612,1.3383186 0.78893,1.8431115 0.52772,0.5047934 1.17205,0.7579151 1.92923,0.7579151 0.74575,0 1.38086,-0.2531214 1.90857,-0.7579151 0.5392,-0.5047933 0.80959,-1.1203394 0.80959,-1.8431115 0,-0.7227724 -0.2704,-1.3348735 -0.80959,-1.83966662 -0.52772,-0.51626574 -1.16284,-0.77514037 -1.90857,-0.77514057 z m 15.334,0 V 20.632514 h -18.05216 v 4.595722 h 22.79947 V 0.10335205 Z M 46.35684,0.17225344 V 6.8832465 L 57.353498,22.113894 H 35.756365 v 3.114342 H 60.622868 V 22.113894 L 49.453957,6.8832465 V 0.17225344 Z m 244.0142,3.61387666 c -0.6654,0 -1.23495,0.218605 -1.70532,0.6545629 -0.47033,0.4244853 -0.70623,0.9330365 -0.70623,1.5296104 0,0.6080459 0.23586,1.1257954 0.70623,1.5502808 0.4704,0.4244833 1.03991,0.637335 1.70532,0.637335 0.65392,0 1.21427,-0.2128517 1.68463,-0.637335 0.48186,-0.4244834 0.72347,-0.9422345 0.72347,-1.5502808 0,-0.5965747 -0.2416,-1.1051257 -0.72347,-1.5296104 -0.4704,-0.4359579 -1.03069,-0.6545629 -1.68463,-0.6545629 z M 68.770452,5.1641575 v 5.1262615 l 1.994698,2.614807 v 12.32301 h 3.441626 V 12.905226 L 72.45323,10.290419 V 5.1641575 Z m 73.920828,0.6166672 c -0.61952,0 -1.15685,0.2243575 -1.61573,0.6717883 -0.4474,0.4359566 -0.67179,0.9652133 -0.67179,1.5847318 0,0.6424616 0.2244,1.185532 0.67179,1.6329625 0.45893,0.4359627 0.99622,0.6545617 1.61573,0.6545617 0.60807,0 1.13733,-0.218605 1.58474,-0.6545617 0.45886,-0.4474299 0.68557,-0.9904982 0.68557,-1.6329625 0,-0.6195218 -0.22667,-1.148775 -0.68557,-1.5847318 -0.44746,-0.4474311 -0.97669,-0.6717883 -1.58474,-0.6717883 z m 9.31202,0 c -0.61946,0 -1.15449,0.2243575 -1.60195,0.6717883 -0.436,0.4359566 -0.65453,0.9652133 -0.65453,1.5847318 0,0.6424616 0.21867,1.185532 0.65453,1.6329625 0.44746,0.4359627 0.98244,0.6545617 1.60195,0.6545617 0.631,0 1.16829,-0.218605 1.61574,-0.6545617 0.4474,-0.4474299 0.67179,-0.9904982 0.67179,-1.6329625 0,-0.6195218 -0.2244,-1.148775 -0.67179,-1.5847318 -0.44739,-0.4474311 -0.98474,-0.6717883 -1.61574,-0.6717883 z m 9.42916,0 c -0.6424,0 -1.18319,0.2243575 -1.61918,0.6717883 -0.436,0.4359566 -0.65113,0.9652133 -0.65113,1.5847318 0,0.6424616 0.21513,1.185532 0.65113,1.6329625 0.43593,0.4359627 0.97672,0.6545617 1.61918,0.6545617 0.61946,0 1.14529,-0.218605 1.58128,-0.6545617 0.4474,-0.4474299 0.67179,-0.9904982 0.67179,-1.6329625 0,-0.6195218 -0.2244,-1.148775 -0.67179,-1.5847318 -0.43593,-0.4474311 -0.96176,-0.6717883 -1.58128,-0.6717883 z M 83.770281,7.5378094 V 11.134461 L 107.48269,21.631584 V 18.258862 Z M 187.79757,7.7789608 v 3.8894832 h 8.87794 v 13.559788 h 4.13064 V 11.668447 h 9.79088 V 7.7789641 Z m 51.0318,2.6664832 v 4.216767 H 242.96 v -4.216764 z m 18.28297,0 c -0.61952,0 -1.15105,0.207098 -1.59851,0.620115 -0.436,0.413017 -0.65459,0.913503 -0.65459,1.498605 0,0.585102 0.21853,1.082145 0.65459,1.495159 0.44746,0.401544 0.97899,0.602889 1.59851,0.602889 0.61947,0 1.14874,-0.201345 1.58474,-0.602889 0.44746,-0.41301 0.67179,-0.910058 0.67179,-1.495159 0,-0.585102 -0.22434,-1.08559 -0.67179,-1.498605 -0.43593,-0.413017 -0.96521,-0.620115 -1.58474,-0.620115 z m 12.46082,0 c -0.61946,0 -1.1545,0.207098 -1.60196,0.620115 -0.436,0.413017 -0.6546,0.913503 -0.6546,1.498605 0,0.585102 0.21854,1.082145 0.6546,1.495159 0.44746,0.401544 0.98244,0.602889 1.60196,0.602889 0.61953,0 1.15105,-0.201345 1.59851,-0.602889 0.44746,-0.41301 0.67178,-0.910058 0.67178,-1.495159 0,-0.585102 -0.22433,-1.08559 -0.67178,-1.498605 -0.44747,-0.413017 -0.979,-0.620115 -1.59851,-0.620115 z m -48.88208,4.216767 v 10.566025 h 4.13064 V 14.662211 Z m 69.62828,1.994695 c -0.65393,0 -1.21197,0.218605 -1.67086,0.654561 -0.45886,0.424483 -0.68557,0.936481 -0.68557,1.533055 0,0.608049 0.22666,1.122351 0.68557,1.546836 0.45893,0.424484 1.01693,0.637335 1.67086,0.637335 0.65392,0 1.20853,-0.212851 1.66741,-0.637335 0.4704,-0.424483 0.70624,-0.938788 0.70624,-1.546836 0,-0.596575 -0.23586,-1.10857 -0.70624,-1.533055 -0.45893,-0.435956 -1.01347,-0.654561 -1.66741,-0.654561 z m -51.48999,4.440693 v 4.130637 H 242.96 V 21.097599 Z M 73.851932,36.01819 c -1.487735,0 -2.870197,0.279251 -4.151307,0.837151 -1.28111,0.557902 -2.408454,1.34394 -3.379613,2.356427 -0.971161,1.012487 -1.736511,2.188102 -2.294416,3.531196 -0.537239,1.322433 -0.806146,2.760053 -0.806146,4.30978 0,1.632377 0.248218,3.128612 0.744135,4.492369 0.516576,1.363759 1.240559,2.553159 2.170393,3.565646 0.929841,0.991824 2.026152,1.757178 3.286596,2.294415 1.260437,0.537236 2.642912,0.806147 4.151307,0.806147 1.012492,-3e-6 2.015718,-0.124113 3.007543,-0.372071 1.012492,-0.268624 1.922638,-0.630615 2.728492,-1.085196 0.82654,-0.454583 1.474682,-0.961378 1.949911,-1.519275 l -1.67086,-2.728492 c -0.475263,0.475243 -1.002719,0.888948 -1.581281,1.240225 -0.578595,0.35127 -1.199124,0.620188 -1.860338,0.806146 -0.661195,0.185979 -1.33349,0.279051 -2.015364,0.279051 -1.115805,0 -2.139724,-0.175812 -3.069556,-0.527096 -0.909173,-0.371934 -1.691767,-0.899407 -2.352982,-1.581286 -0.661248,-0.68188 -1.178377,-1.498945 -1.550281,-2.449444 -0.351277,-0.97116 -0.527097,-2.043348 -0.527097,-3.221139 0,-1.115803 0.186172,-2.139721 0.558102,-3.069556 0.371931,-0.950499 0.87872,-1.767565 1.519275,-2.449443 0.661195,-0.681883 1.426569,-1.205912 2.294415,-1.577842 0.888513,-0.392604 1.836586,-0.589109 2.849071,-0.589109 0.640528,0 1.27145,0.103426 1.891338,0.310058 0.640529,0.206632 1.261111,0.516909 1.860339,0.930169 0.619929,0.392596 1.230104,0.885598 1.829332,1.484824 l 2.228964,-2.321976 C 81.145328,39.046668 80.4765,38.405427 79.64998,37.847522 78.84412,37.268966 77.933974,36.824234 76.921488,36.51428 75.929656,36.183669 74.905737,36.01819 73.851932,36.01819 Z m 103.203918,0 c -1.57038,0 -3.03903,0.279251 -4.4028,0.837151 -1.36375,0.557903 -2.56005,1.34394 -3.59321,2.356427 -1.0125,0.991825 -1.80888,2.157095 -2.38743,3.50019 -0.55786,1.343095 -0.83715,2.791059 -0.83715,4.340786 0,1.570387 0.27926,3.035593 0.83715,4.399353 0.57853,1.343094 1.38528,2.522152 2.41843,3.53464 1.03315,1.012486 2.22945,1.808866 3.59321,2.387432 1.36377,0.557902 2.83241,0.837152 4.4028,0.837152 1.36377,0 2.62212,-0.227545 3.77924,-0.682124 1.1778,-0.47525 2.20171,-1.137176 3.06956,-1.984359 0.88858,-0.847184 1.58124,-1.850417 2.07737,-3.007545 0.4958,-1.177793 0.74414,-2.477515 0.74414,-3.903263 0,-0.185965 -0.01,-0.37213 -0.0313,-0.558102 0,-0.206619 -0.01,-0.413477 -0.0313,-0.620115 -0.02,-0.227285 -0.0507,-0.45483 -0.093,-0.682124 h -9.6083 v 3.317602 h 6.16668 v 0.182585 c 0,0.640555 -0.1552,1.250767 -0.46507,1.829331 -0.30993,0.557902 -0.74433,1.054348 -1.30223,1.488269 -0.55793,0.433917 -1.19915,0.775223 -1.92236,1.023186 -0.72321,0.227311 -1.48511,0.341064 -2.29096,0.341064 -1.07448,0 -2.09839,-0.206852 -3.06956,-0.620115 -0.94925,-0.413251 -1.79797,-0.982096 -2.54184,-1.705301 -0.72317,-0.723206 -1.29202,-1.557512 -1.70531,-2.50801 -0.41326,-0.971162 -0.61666,-1.99508 -0.61666,-3.069556 0,-1.115803 0.19313,-2.13972 0.58566,-3.069556 0.3926,-0.950498 0.94076,-1.777907 1.6433,-2.480449 0.72321,-0.702538 1.55062,-1.247252 2.48045,-1.639853 0.9505,-0.392603 1.98477,-0.589108 3.10056,-0.589108 0.68188,0 1.36105,0.103426 2.04293,0.310057 0.68187,0.206632 1.34379,0.50657 1.98436,0.899163 0.66119,0.392597 1.30245,0.885596 1.92235,1.484825 l 2.17038,-2.259965 c -0.53724,-0.723207 -1.2302,-1.364449 -2.07738,-1.922348 -0.84718,-0.557894 -1.79871,-0.992283 -2.85251,-1.302236 -1.03316,-0.309953 -2.09499,-0.465084 -3.19013,-0.465084 z M 20.91501,36.204224 12.515934,57.901265 h 3.410617 l 2.049816,-5.394978 h 9.077755 l 2.042926,5.394978 h 3.565645 L 24.325628,36.204224 Z m 18.944431,0 v 21.697041 h 9.360251 c 1.136465,0 2.146595,-0.134446 3.035105,-0.403071 0.88851,-0.289277 1.643517,-0.702985 2.26341,-1.240224 0.640548,-0.537236 1.116326,-1.199166 1.426258,-1.98436 0.330611,-0.805855 0.49609,-1.726349 0.49609,-2.759499 0,-1.012489 -0.206859,-1.908851 -0.620115,-2.694044 -0.392591,-0.785206 -0.951096,-1.436789 -1.6743,-1.953357 -0.472606,-0.35109 -0.995903,-0.630706 -1.574396,-0.840596 0.704584,-0.325672 1.279593,-0.780378 1.729424,-1.360803 0.661216,-0.82652 0.99218,-1.829754 0.99218,-3.007544 0,-1.177792 -0.248225,-2.167236 -0.744135,-2.973094 -0.475248,-0.826515 -1.188889,-1.447074 -2.139388,-1.860337 -0.950499,-0.413259 -2.115768,-0.620112 -3.500189,-0.620112 z m 78.613009,0 v 21.697041 h 13.67004 v -3.224584 h -10.32143 v -6.290696 h 8.61612 v -3.224584 h -8.61612 v -5.732593 h 10.32143 v -3.224584 z m 24.93541,0 v 21.697041 h 3.34861 v -9.236229 h 9.32924 v -3.224584 h -9.32924 v -6.011644 h 10.7245 v -3.224584 h -10.7245 z m 46.78748,0 v 21.697041 h 3.3486 v -9.205223 h 10.81752 v 9.205223 h 3.34516 V 36.204224 h -3.34516 v 9.267234 h -10.81752 v -9.267234 z m 27.09546,0 v 3.100561 h 3.50019 v 15.495918 h -3.50019 v 3.100562 h 10.35243 V 54.800703 H 224.1396 V 39.304785 h 3.50363 v -3.100561 z m 21.62125,0 v 3.100561 h 3.96872 v 11.682227 c 0,0.764531 -0.1552,1.447144 -0.46506,2.046371 -0.30993,0.599215 -0.74434,1.074972 -1.30224,1.426258 -0.55793,0.330611 -1.20948,0.496089 -1.95335,0.496089 -0.372,0 -0.72017,-0.03107 -1.05075,-0.09302 -0.33066,-0.08267 -0.66159,-0.227451 -0.99218,-0.434077 -0.33059,-0.206631 -0.68224,-0.496229 -1.05419,-0.868157 -0.35126,-0.371937 -0.7443,-0.86838 -1.17821,-1.488269 l -2.10838,2.201398 c 0.30993,0.578562 0.68224,1.11638 1.1162,1.612292 0.43393,0.475243 0.92004,0.88895 1.45727,1.240225 0.55792,0.351271 1.15775,0.620182 1.79832,0.806147 0.64053,0.185965 1.30937,0.279051 2.01192,0.279051 1.05381,0 2.00533,-0.175812 2.85252,-0.527096 0.86785,-0.351271 1.61251,-0.837373 2.2324,-1.457264 0.64059,-0.619888 1.12669,-1.343873 1.45727,-2.170393 0.35139,-0.847184 0.52706,-1.767675 0.52706,-2.7595 V 39.304785 h 3.34517 v -3.100561 z m 15.58893,0 v 21.697041 h 3.34861 v -7.114067 l 3.30382,-3.207358 7.73073,10.321425 h 4.18232 l -9.54285,-12.619286 9.35681,-9.077755 h -4.39935 L 257.84959,46.835705 V 36.204224 Z m 25.56241,0 v 21.697041 h 13.515 V 54.676681 H 283.412 V 36.204224 Z m 24.40142,0 v 21.697041 h 3.3486 v -8.895167 c 0,-2.004314 -0.0513,-3.731529 -0.155,-5.177938 -0.038,-0.67063 -0.0905,-1.331 -0.15846,-1.984359 l 6.23213,9.825335 h 2.04637 l 6.3596,-9.832226 c -0.0787,0.712991 -0.14307,1.428478 -0.19294,2.146278 -0.0826,1.487736 -0.1206,3.163238 -0.1206,5.02291 v 8.895167 h 3.34517 V 36.204224 h -3.10057 l -7.21053,11.571984 -7.10717,-11.571984 z M 88.700176,36.29035 v 21.693595 h 8.495539 c 1.549728,0 2.952875,-0.258564 4.213325,-0.77514 1.26044,-0.516576 2.32572,-1.247456 3.19357,-2.197954 0.88843,-0.971161 1.57104,-2.119188 2.04637,-3.441623 0.4752,-1.343094 0.70969,-2.822089 0.70969,-4.433803 0,-1.611716 -0.23447,-3.076921 -0.70969,-4.399353 -0.47524,-1.322431 -1.15786,-2.470461 -2.04637,-3.441622 -0.88851,-0.971164 -1.96414,-1.715832 -3.22458,-2.232404 -1.23979,-0.516573 -2.632587,-0.771695 -4.182315,-0.771695 z m -45.495573,3.138458 h 5.146932 c 1.157128,0 2.046589,0.248225 2.666483,0.744135 0.619888,0.495909 0.926723,1.206105 0.926723,2.135942 0,0.557902 -0.144785,1.054344 -0.434076,1.488269 -0.268625,0.433923 -0.647855,0.775227 -1.143763,1.023185 -0.47525,0.247958 -1.023409,0.372071 -1.643298,0.372071 h -5.519001 z m 48.84418,0.08268 h 4.9919 c 1.095138,0 2.063897,0.175825 2.911084,0.527096 0.847193,0.351271 1.571173,0.858059 2.170393,1.519275 0.5992,0.661215 1.05432,1.467949 1.36425,2.418438 0.30993,0.929837 0.46506,1.981337 0.46506,3.159128 0,1.177792 -0.1552,2.24308 -0.46506,3.193578 -0.30993,0.950499 -0.76502,1.757226 -1.36425,2.418438 -0.57859,0.640548 -1.30255,1.136992 -2.170393,1.488269 -0.847187,0.351284 -1.815946,0.527096 -2.911084,0.527096 h -4.9919 z m -69.518036,0.447859 c 0.0094,0.02913 0.01787,0.05933 0.02753,0.08957 0.185965,0.557902 0.392816,1.175013 0.620115,1.856891 0.227285,0.681879 0.423796,1.302435 0.589108,1.860338 0.185966,0.557902 0.310071,0.909551 0.372071,1.05419 l 1.691548,4.464808 h -6.628312 l 1.650188,-4.340786 c 0.123979,-0.35127 0.279117,-0.785663 0.465083,-1.302236 0.185965,-0.537236 0.37213,-1.106081 0.558102,-1.705309 0.206632,-0.599228 0.392797,-1.164624 0.558102,-1.701864 0.03273,-0.09457 0.06567,-0.186798 0.09646,-0.275605 z m 20.673856,8.457643 h 5.674027 c 0.847184,0 1.578064,0.124112 2.197954,0.372064 0.619895,0.227291 1.095654,0.568609 1.426258,1.023185 0.351284,0.45459 0.527096,0.999298 0.527096,1.639853 0,0.681878 -0.165479,1.271407 -0.496089,1.76732 -0.309945,0.475253 -0.765021,0.837242 -1.364248,1.0852 -0.578562,0.247965 -1.288759,0.372068 -2.135943,0.372068 H 43.204603 Z M 6.5008441,90.140218 c -0.7342774,0 -1.3670745,0.261198 -1.8947877,0.78892 -0.5162806,0.527729 -0.7716953,1.160538 -0.7716953,1.894785 0,0.745714 0.2554147,1.380823 0.7716953,1.908565 0.5277419,0.516263 1.1605392,0.775141 1.8947877,0.775141 0.7342677,0 1.36363,-0.258865 1.8913425,-0.775141 0.5277159,-0.527729 0.7923658,-1.162844 0.7923658,-1.908565 0,-0.734247 -0.2646512,-1.367049 -0.7923658,-1.894785 -0.5277418,-0.527742 -1.1571035,-0.78892 -1.8913425,-0.78892 z m 6.0392049,0 v 9.27412 L 3.8343611,115.2651 H 8.56444 l 8.950288,-15.850762 v -9.27412 z m 14.713887,0 v 4.299439 l 8.709133,-0.01733 v 4.991901 L 27.253936,115.2651 h 5.112481 l 8.567886,-15.850762 v -4.991901 l -1.908569,-4.282219 z m 25.521067,0 c -0.653955,0 -1.208527,0.215131 -1.667414,0.651128 -0.447456,0.43593 -0.671788,0.959459 -0.671788,1.567507 0,0.619462 0.224332,1.148731 0.671788,1.584728 0.458903,0.43593 1.013472,0.651128 1.667414,0.651128 0.642481,0 1.188996,-0.215131 1.636407,-0.651128 0.45889,-0.43593 0.685569,-0.965212 0.685569,-1.584728 0,-0.608061 -0.226685,-1.131557 -0.685569,-1.567507 -0.44743,-0.435997 -0.993946,-0.651128 -1.636407,-0.651128 z m 6.986598,0 v 19.151132 h 4.595721 V 90.140218 Z m 21.097596,0 c -0.653928,0 -1.202724,0.215131 -1.650187,0.651128 -0.447463,0.43593 -0.671788,0.959459 -0.671788,1.567507 0,0.619462 0.224332,1.148731 0.671788,1.584728 0.447463,0.43593 0.996246,0.651128 1.650187,0.651128 0.642462,0 1.194744,-0.215131 1.653634,-0.651128 0.458863,-0.43593 0.689014,-0.965212 0.689014,-1.584728 0,-0.608061 -0.230131,-1.131557 -0.689014,-1.567507 -0.45893,-0.435997 -1.011172,-0.651128 -1.653634,-0.651128 z m 49.819133,0 v 12.715742 h 9.32925 v 12.40914 h 4.59572 V 98.794223 h -9.17422 v -8.654005 z m 23.42302,0 v 4.523371 h 13.92153 v 12.478031 h 4.75075 V 90.140218 Z m 61.57371,0 v 12.715742 h -9.26034 v 4.28566 h 23.18186 v -4.28566 h -9.34303 V 90.140218 Z m 54.44931,0 c -0.65393,0 -1.21773,0.220931 -1.68809,0.668341 -0.45886,0.447463 -0.68901,0.982439 -0.68901,1.601954 0,0.619528 0.23013,1.154551 0.68901,1.601961 0.4704,0.43593 1.03415,0.651128 1.68809,0.651128 0.65393,0 1.20852,-0.215198 1.66741,-0.651128 0.47033,-0.447397 0.70624,-0.982439 0.70624,-1.601961 0,-0.619528 -0.23587,-1.154538 -0.70624,-1.601954 -0.45893,-0.447397 -1.01348,-0.668341 -1.66741,-0.668341 z m 11.54442,0 -13.92152,25.124882 h 4.75075 l 13.92152,-25.124882 z m 14.48996,0 V 115.2651 h 4.75075 V 90.140218 Z m 9.32925,0 V 115.2651 h 4.59571 V 90.140218 Z m 23.41957,0 -9.3258,8.654005 V 115.2651 h 4.75075 V 98.794223 l 4.57505,-4.130634 4.59572,4.130634 V 115.2651 h 4.75075 V 98.794223 Z M 97.760704,94.663589 v 4.130634 h 4.506156 v -4.130634 z m 18.427676,0 v 4.130634 h 4.75075 v -4.130634 z m 68.69811,0 c -0.65393,0 -1.21428,0.207065 -1.68464,0.620128 -0.45887,0.40153 -0.68902,0.884773 -0.68902,1.446929 0,0.573595 0.23013,1.059151 0.68902,1.460708 0.47039,0.40153 1.0307,0.602862 1.68464,0.602862 0.65392,0 1.21197,-0.201332 1.67086,-0.602862 0.47033,-0.40153 0.70623,-0.887079 0.70623,-1.460708 0,-0.562129 -0.23586,-1.045379 -0.70623,-1.446929 -0.45893,-0.412997 -1.01693,-0.620128 -1.67086,-0.620128 z m 9.26034,0 c -0.64247,0 -1.18895,0.207065 -1.63641,0.620128 -0.44746,0.40153 -0.67179,0.884773 -0.67179,1.446929 0,0.573595 0.22433,1.059151 0.67179,1.460708 0.44746,0.40153 0.99394,0.602862 1.63641,0.602862 0.61952,0 1.15109,-0.201332 1.59851,-0.602862 0.45886,-0.40153 0.68901,-0.887079 0.68901,-1.460708 0,-0.562129 -0.23013,-1.045379 -0.68901,-1.446929 -0.4474,-0.412997 -0.97899,-0.620128 -1.59851,-0.620128 z m 49.93971,0 v 4.130634 h 4.5785 v -4.130634 z m -193.650739,2.446 V 115.2651 h 4.661178 V 97.109589 Z m 18.90998,0.08613 v 4.130641 h 18.431115 v 9.87701 H 69.345781 v 4.06174 H 92.527645 V 97.195722 Z m 108.657459,5.660251 v 4.28566 h 23.18186 v -4.28567 z m -80.242536,4.28565 v 4.06175 h 4.506156 v -4.06175 z m 18.427676,0 v 4.06175 h 4.75075 v -4.06175 z m 118.63782,0 v 4.06175 h 4.50959 v -4.06175 z m 18.43111,0 v 4.06175 h 4.75075 v -4.06175 z m -191.190958,4.06175 c -0.642435,0 -1.185503,0.20133 -1.632962,0.60286 -0.447457,0.40153 -0.671789,0.87558 -0.671789,1.42626 0,0.56213 0.224332,1.04538 0.671789,1.44693 0.447423,0.39006 0.990491,0.58566 1.632962,0.58566 0.619488,0 1.154497,-0.1956 1.601957,-0.58566 0.45889,-0.40153 0.689013,-0.88478 0.689013,-1.44693 0,-0.55066 -0.230124,-1.02471 -0.689013,-1.42626 -0.44743,-0.40153 -0.982438,-0.60286 -1.601957,-0.60286 z m 108.330178,0 c -0.65393,0 -1.21427,0.20133 -1.68464,0.60286 -0.45887,0.40153 -0.68901,0.87558 -0.68901,1.42626 0,0.56213 0.23013,1.04538 0.68901,1.44693 0.47039,0.39006 1.0307,0.58566 1.68464,0.58566 0.65392,0 1.21197,-0.1956 1.67086,-0.58566 0.47039,-0.40153 0.70624,-0.88478 0.70624,-1.44693 0,-0.55066 -0.23587,-1.02471 -0.70624,-1.42626 -0.45887,-0.40153 -1.01692,-0.60286 -1.67086,-0.60286 z m 36.01819,0 v 4.06173 h 23.18186 v -4.06173 z M 32.221725,125.93103 c -1.529068,0 -2.94256,0.27926 -4.244324,0.83715 -1.281114,0.55793 -2.408451,1.3405 -3.379613,2.35298 -0.950451,0.99183 -1.69512,2.17089 -2.232404,3.53464 -0.516563,1.3431 -0.775141,2.81865 -0.775141,4.43036 0,1.61172 0.258578,3.10104 0.775141,4.46481 0.537242,1.34309 1.281914,2.52215 2.232404,3.53464 0.971161,0.99182 2.098499,1.76408 3.379613,2.32198 1.301764,0.55786 2.715256,0.83715 4.244324,0.83715 1.529067,0 2.935654,-0.27926 4.216763,-0.83715 1.301765,-0.55793 2.425672,-1.34049 3.376167,-2.35298 0.971181,-1.01249 1.715844,-2.19155 2.232405,-3.53464 0.537229,-1.36377 0.806146,-2.84276 0.806146,-4.43381 0,-1.59105 -0.268918,-3.05625 -0.806146,-4.39935 -0.516575,-1.36376 -1.261239,-2.55316 -2.232405,-3.56565 -0.950495,-1.01249 -2.074402,-1.79508 -3.376167,-2.35298 -1.281109,-0.55789 -2.6877,-0.83715 -4.216763,-0.83715 z m 48.87863,0 c -1.529061,0 -2.946003,0.27926 -4.247766,0.83715 -1.28111,0.55793 -2.405021,1.34051 -3.376174,2.35298 -0.950512,0.99183 -1.695173,2.17089 -2.232402,3.53464 -0.516596,1.3431 -0.775141,2.81865 -0.775141,4.43036 0,1.61172 0.258532,3.10104 0.775141,4.46481 0.537262,1.34309 1.281903,2.52215 2.232402,3.53464 0.971153,0.99182 2.095064,1.76407 3.376174,2.32198 1.301763,0.55786 2.718705,0.83715 4.247766,0.83715 1.427029,-1e-5 2.747325,-0.241 3.958383,-0.72691 l 2.921417,3.82747 2.666485,-1.92235 -2.749165,-3.61043 c 0.277998,-0.2374 0.542729,-0.48833 0.795807,-0.75791 0.971179,-1.0125 1.715853,-2.19155 2.232409,-3.53464 0.537196,-1.36377 0.806147,-2.84276 0.806147,-4.43381 0,-1.59105 -0.268931,-3.05625 -0.806147,-4.39935 -0.516596,-1.36376 -1.261243,-2.55315 -2.232409,-3.56565 -0.950499,-1.01248 -2.07439,-1.79508 -3.376166,-2.35298 -1.281104,-0.55786 -2.687699,-0.83715 -4.216761,-0.83715 z m 56.871185,0 c -1.05381,0 -2.0329,0.15513 -2.94208,0.46506 -0.90917,0.28927 -1.70556,0.7099 -2.38744,1.26779 -0.66132,0.53726 -1.18875,1.17848 -1.58128,1.92235 -0.37193,0.74386 -0.55813,1.55059 -0.55813,2.41844 0,0.88851 0.13453,1.69523 0.40306,2.41843 0.2686,0.70254 0.68233,1.33345 1.24022,1.89135 0.55793,0.55786 1.25086,1.01985 2.07738,1.39181 0.82651,0.37193 1.79865,0.67187 2.91452,0.89916 0.70253,0.12393 1.31962,0.27906 1.8569,0.46506 0.53733,0.16526 1.00277,0.3618 1.39525,0.58913 0.4132,0.22726 0.74414,0.47553 0.99218,0.74413 0.26847,0.2686 0.46513,0.56853 0.58913,0.89916 0.124,0.3306 0.18607,0.68224 0.18607,1.05419 0,0.55793 -0.1862,1.05437 -0.55813,1.48828 -0.37193,0.43393 -0.87872,0.77523 -1.51928,1.02318 -0.64053,0.248 -1.35418,0.37207 -2.13939,0.37207 -1.2811,0 -2.38432,-0.27927 -3.31415,-0.83716 -0.92984,-0.55792 -1.90204,-1.56112 -2.91453,-3.00754 l -2.29441,2.63548 c 0.64053,0.92983 1.36453,1.71587 2.17039,2.35643 0.82653,0.61986 1.73667,1.08185 2.72849,1.3918 1.01249,0.30993 2.10536,0.46506 3.28315,0.46506 1.63237,0 3.03897,-0.26893 4.21676,-0.80614 1.1778,-0.55793 2.08795,-1.34051 2.7285,-2.35298 0.64053,-1.0125 0.96118,-2.21223 0.96118,-3.59666 0,-0.74387 -0.16554,-1.43683 -0.49607,-2.07737 -0.30993,-0.64053 -0.77536,-1.21975 -1.39525,-1.73632 -0.61986,-0.51653 -1.3749,-0.95784 -2.26341,-1.32979 -0.8885,-0.39253 -1.90207,-0.71318 -3.03855,-0.96118 -0.80585,-0.16533 -1.49536,-0.35153 -2.07393,-0.55813 -0.57846,-0.22727 -1.04388,-0.47553 -1.39526,-0.74414 -0.33053,-0.28927 -0.57879,-0.60986 -0.74413,-0.96117 -0.16527,-0.37193 -0.24807,-0.77531 -0.24807,-1.20922 0,-0.59926 0.16554,-1.11637 0.49607,-1.55028 0.35126,-0.45453 0.82704,-0.8062 1.42626,-1.05419 0.59926,-0.24794 1.29908,-0.37207 2.10494,-0.37207 0.70253,0 1.36446,0.12413 1.98435,0.37207 0.61986,0.22733 1.1887,0.57892 1.70531,1.05419 0.51653,0.45459 0.98193,1.02343 1.39526,1.7053 l 2.35642,-2.32542 c -0.47526,-0.82652 -1.07512,-1.51947 -1.79832,-2.07737 -0.72322,-0.57853 -1.55062,-1.0095 -2.48046,-1.29879 -0.92982,-0.28927 -1.95375,-0.43407 -3.06955,-0.43407 z m 43.09436,0.27906 v 13.38754 c 0,1.63238 0.37233,3.10103 1.11621,4.4028 0.76454,1.28111 1.80912,2.29124 3.13157,3.0351 1.32239,0.72319 2.82214,1.08518 4.49581,1.0852 1.67364,-2e-5 3.16995,-0.362 4.49237,-1.0852 1.32243,-0.74386 2.3567,-1.75399 3.10056,-3.0351 0.76453,-1.30177 1.1472,-2.77041 1.1472,-4.4028 v -13.38754 h -3.19357 v 13.10849 c 0,1.05381 -0.24833,2.00533 -0.74413,2.85251 -0.49593,0.82653 -1.1682,1.48846 -2.01538,1.98436 -0.82652,0.49593 -1.75389,0.74414 -2.78705,0.74414 -0.97115,0 -1.87096,-0.2482 -2.69749,-0.74414 -0.80594,-0.49593 -1.45753,-1.15783 -1.95336,-1.98436 -0.49579,-0.84718 -0.74413,-1.7987 -0.74413,-2.85251 v -13.10849 z m -131.319113,0.0313 v 21.69359 h 3.348607 v -8.30606 h 5.484549 c 1.177788,0 2.243083,-0.29993 3.193578,-0.89916 0.971166,-0.61986 1.743418,-1.43351 2.321976,-2.446 0.578562,-1.01249 0.868157,-2.13983 0.868157,-3.37961 0,-1.23978 -0.289591,-2.36712 -0.868157,-3.37962 -0.578558,-1.01316 -1.35081,-1.80575 -2.321976,-2.38432 -0.950495,-0.59923 -2.01579,-0.89916 -3.193578,-0.89916 z m 51.414203,0 v 21.69359 h 3.3486 v -8.15103 h 4.95402 l 4.59227,8.15103 4.05829,0.0313 -5.03669,-8.70225 c 0.2602,-0.10906 0.51413,-0.2356 0.76136,-0.37893 1.03314,-0.61986 1.86054,-1.43351 2.48045,-2.446 0.61986,-1.01249 0.93017,-2.1088 0.93017,-3.28659 0,-1.30177 -0.31027,-2.47049 -0.93017,-3.50364 -0.61993,-1.05381 -1.45767,-1.87778 -2.51146,-2.477 -1.03316,-0.61987 -2.17083,-0.93017 -3.41061,-0.93017 z m 54.40797,0 v 3.22113 h 6.07365 v 18.47246 h 3.34861 v -18.47246 h 6.25969 v -3.22113 z m 52.11699,0 8.67813,21.69359 h 3.25559 l 8.74013,-21.69359 h -3.90671 l -4.80242,13.17049 c -0.30986,0.80586 -0.57879,1.52984 -0.80614,2.17039 -0.20674,0.64053 -0.39287,1.23009 -0.55813,1.76732 -0.0267,0.0868 -0.0533,0.17267 -0.0793,0.2584 -0.11033,-0.32893 -0.22866,-0.67315 -0.35486,-1.03352 -0.14474,-0.43393 -0.32047,-0.90968 -0.52707,-1.42626 -0.18579,-0.5166 -0.40299,-1.09575 -0.65112,-1.73631 l -5.1745,-13.1705 z m 24.78382,0 6.91081,21.69359 h 2.26341 l 5.40531,-13.17739 5.56723,13.17739 h 2.32198 l 6.91425,-21.69359 h -3.59665 l -4.1203,13.48055 c -0.16527,0.5372 -0.29973,0.96127 -0.40307,1.27123 -0.0818,0.30993 -0.14379,0.56853 -0.18599,0.77514 -0.0407,0.18593 -0.0818,0.38247 -0.124,0.58913 -0.009,0.0447 -0.0213,0.091 -0.0313,0.14127 -0.11013,-0.4164 -0.23239,-0.82485 -0.37206,-1.22645 -0.14473,-0.49593 -0.32046,-0.99236 -0.52713,-1.48827 l -3.78268,-9.79433 h -3.00755 l -3.90326,9.79433 c -0.0825,0.22726 -0.17566,0.50653 -0.27906,0.83715 -0.10327,0.30993 -0.2482,0.76502 -0.43407,1.36425 -0.0547,0.19846 -0.11886,0.42233 -0.18946,0.67523 -0.0193,-0.10999 -0.038,-0.22033 -0.0587,-0.33419 -0.0826,-0.4546 -0.17573,-0.89934 -0.27906,-1.33324 -0.1034,-0.4546 -0.21707,-0.84759 -0.34107,-1.17822 l -4.18576,-13.57356 z m 34.23709,0 7.63083,10.59013 -7.78586,11.10346 h 3.93772 l 5.7567,-8.39908 5.80494,8.39908 h 4.24433 l -7.80652,-10.7555 7.49646,-10.93809 h -3.93427 l -5.43287,8.28539 -5.66369,-8.28539 z m 26.05505,0 8.55411,12.08874 v 9.60485 h 3.3486 v -9.66341 l 7.93399,-12.03018 h -3.84125 l -5.70848,8.98129 -6.25624,-8.98129 z m 28.39426,0 v 3.22113 h 11.16891 l -11.97506,16.02646 v 2.446 h 16.86361 v -3.22114 h -12.25411 l 11.91305,-16.05746 v -2.41533 z M 0,126.32377 v 21.69704 h 3.3451614 v -9.01919 c 0,-0.18593 -0.010273,-0.4032 -0.031006,-0.65113 0,-0.24793 -0.010273,-0.55819 -0.031006,-0.93016 -0.02064,-0.3926 -0.062066,-0.88904 -0.1240224,-1.48827 -0.04142,-0.61986 -0.1034372,-1.36456 -0.1860339,-2.23241 -0.045066,-0.64726 -0.1017098,-1.3912 -0.1688086,-2.23584 L 15.433905,148.0208 h 3.069555 v -21.69703 h -3.348604 v 7.12785 c 0,0.90916 0.01027,1.78829 0.031,2.63547 0.02167,0.84719 0.04127,1.66425 0.062,2.44945 0.04013,0.76452 0.08159,1.49885 0.124026,2.20139 0.06207,0.68188 0.124072,1.33002 0.186032,1.94991 0.0182,0.17594 0.03853,0.3514 0.0586,0.5202 L 3.0075447,126.32377 Z m 32.221725,2.85941 c 1.053811,0 2.015677,0.19653 2.883522,0.58913 0.888511,0.39259 1.653858,0.95109 2.294415,1.6743 0.640509,0.70254 1.133512,1.5403 1.484825,2.51146 0.37195,0.9505 0.558102,1.99509 0.558102,3.13156 0,1.13647 -0.186145,2.18797 -0.558102,3.15913 -0.351264,0.9505 -0.844273,1.78826 -1.484825,2.51146 -0.640555,0.70256 -1.405904,1.25072 -2.294415,1.64329 -0.867845,0.3926 -1.829711,0.58913 -2.883522,0.58913 -1.053802,0 -2.026012,-0.19653 -2.914528,-0.58913 -0.86785,-0.3926 -1.629753,-0.94078 -2.290971,-1.64332 -0.640515,-0.70255 -1.136956,-1.54029 -1.488269,-2.51145 -0.351364,-0.97116 -0.527096,-2.02267 -0.527096,-3.15913 0,-1.15713 0.175732,-2.21208 0.527096,-3.16258 0.351263,-0.97116 0.847708,-1.80891 1.488269,-2.51145 0.661215,-0.70256 1.423121,-1.25072 2.290971,-1.6433 0.888516,-0.3926 1.860726,-0.58913 2.914528,-0.58913 z m 48.87863,0 c 1.053812,0 2.015678,0.19653 2.883524,0.58913 0.888507,0.39259 1.650407,0.95109 2.290969,1.6743 0.640528,0.70254 1.136938,1.5403 1.488268,2.51146 0.371931,0.9505 0.558129,1.99509 0.558129,3.13156 0,1.13647 -0.186198,2.18797 -0.558129,3.15913 -0.351264,0.9505 -0.84772,1.78826 -1.488268,2.51146 -0.127932,0.14033 -0.258398,0.27513 -0.396197,0.40306 l -3.352054,-4.4028 -2.759498,1.82933 3.186688,4.17543 c -0.582528,0.15127 -1.199243,0.2274 -1.853445,0.2274 -1.053812,0 -2.026024,-0.19653 -2.91453,-0.58913 -0.867847,-0.3926 -1.629741,-0.94075 -2.290969,-1.64329 -0.640462,-0.70255 -1.136891,-1.5403 -1.488268,-2.51146 -0.351398,-0.97116 -0.527063,-2.02266 -0.527063,-3.15913 0,-1.15713 0.175799,-2.21207 0.527063,-3.16257 0.351264,-0.97116 0.84772,-1.80891 1.488268,-2.51145 0.661261,-0.70256 1.423122,-1.25073 2.290969,-1.6433 0.888506,-0.3926 1.860718,-0.58913 2.91453,-0.58913 z m -28.004961,0.27906 h 5.422538 c 0.557889,0 1.064679,0.15513 1.519275,0.46506 0.454643,0.30994 0.816624,0.72367 1.085196,1.24023 0.289305,0.51659 0.434077,1.09576 0.434077,1.73631 0,0.64053 -0.144772,1.23008 -0.434077,1.76732 -0.268571,0.5166 -0.630555,0.94061 -1.085196,1.27123 -0.454583,0.30993 -0.961378,0.46506 -1.519275,0.46506 h -5.422538 z m 51.414196,0 h 5.32953 c 0.76452,0 1.44714,0.15513 2.04637,0.46506 0.61999,0.30994 1.09581,0.74434 1.42625,1.30224 0.35133,0.53726 0.52706,1.16815 0.52706,1.89134 0,0.64059 -0.13446,1.23008 -0.40306,1.76732 -0.26853,0.51659 -0.64086,0.93026 -1.1162,1.24022 -0.47527,0.28927 -1.01307,0.43407 -1.61229,0.43407 h -6.19769 z m 26.42368,48.8373 -3.91704,3.42439 0.93361,1.3987 4.76453,-2.57691 z m 113.72515,0.30313 c -0.58446,0 -1.05168,0.16386 -1.39869,0.49266 -0.32873,0.32873 -0.49267,0.75879 -0.49267,1.28846 0,0.56619 0.16387,1.00208 0.49267,1.31257 0.32873,0.31046 0.79597,0.46853 1.39869,0.46853 0.58446,0 1.03894,-0.16734 1.36769,-0.49607 0.347,-0.32873 0.5202,-0.75534 0.5202,-1.28501 0,-0.56619 -0.16387,-1.00553 -0.49267,-1.31601 -0.32873,-0.31047 -0.79252,-0.46507 -1.39524,-0.46507 z m -176.845693,0.84748 v 20.27423 h 2.821511 v -4.72319 l 1.570947,-1.47104 5.305412,6.19423 h 3.617318 l -6.945259,-8.05112 6.752334,-6.33204 h -3.806797 l -6.493955,6.44228 v -12.33335 z m 23.233543,0 v 20.27423 h 2.821512 v -4.72663 l 1.567501,-1.4676 5.308847,6.19423 h 3.61733 l -6.94526,-8.05112 6.75233,-6.33204 h -3.8068 l -6.493948,6.44228 v -12.33335 z m 111.4204,0 v 7.67562 c -0.24287,-0.28533 -0.53347,-0.55186 -0.87505,-0.79926 -0.52966,-0.40187 -1.13288,-0.71102 -1.80866,-0.93017 -0.65753,-0.2374 -1.3444,-0.35486 -2.0567,-0.35486 -1.29677,0 -2.45672,0.3278 -3.47952,0.98529 -1.02281,0.63926 -1.83295,1.52376 -2.43567,2.65615 -0.58446,1.11412 -0.87849,2.39492 -0.87849,3.83781 0,1.44288 0.30333,2.72952 0.90605,3.86191 0.60273,1.11412 1.41286,1.99864 2.43567,2.65615 1.04106,0.63927 2.21961,0.96118 3.53464,0.96118 v -0.003 c 0.65753,0 1.29791,-0.10813 1.9189,-0.32726 0.63926,-0.2192 1.19599,-0.50973 1.67086,-0.87506 0.43393,-0.32139 0.78961,-0.66619 1.06797,-1.03007 v 1.96025 h 2.82151 V 179.45017 Z M 16.498432,180.5457 v 2.84907 h 9.873567 l -10.583251,14.16612 v 2.16351 h 14.903367 v -2.84908 H 19.857374 l 10.531574,-14.19023 v -2.13939 z m 25.207566,4.49581 c -0.767101,0 -1.515613,0.1732 -2.246184,0.5202 -0.730573,0.32873 -1.361678,0.76464 -1.891344,1.31257 -0.222351,0.22233 -0.41413,0.45426 -0.575328,0.6959 v -2.22896 h -2.821511 v 14.38316 h 0.709687 0.713129 1.398697 v -8.71258 c 0,-0.47486 0.08952,-0.9142 0.272158,-1.31601 0.200905,-0.42007 0.467057,-0.78505 0.795811,-1.09553 0.347024,-0.31047 0.749166,-0.54527 1.205774,-0.70969 0.45661,-0.1826 0.957566,-0.2756 1.505495,-0.2756 0.675779,-0.0367 1.241811,0.0751 1.698419,0.33073 0.456609,0.2374 0.797123,0.62686 1.016294,1.17477 0.219172,0.52966 0.327284,1.20725 0.327284,2.02914 v 8.57478 h 2.821511 v -8.76769 c 0,-1.3333 -0.182478,-2.43748 -0.547769,-3.31416 -0.36528,-0.87668 -0.912722,-1.52638 -1.643294,-1.94646 -0.730572,-0.43833 -1.642971,-0.65457 -2.738829,-0.65457 z m 14.545079,0 c -1.260237,0 -2.401597,0.31847 -3.424399,0.95773 -1.004536,0.63927 -1.808825,1.52376 -2.411547,2.65615 -0.584456,1.11412 -0.875047,2.39493 -0.875047,3.83781 0,1.42461 0.290591,2.70197 0.875047,3.83436 0.584455,1.13239 1.360858,2.02619 2.328866,2.68371 0.986272,0.65753 2.0753,0.98873 3.26248,0.98873 0.694043,0 1.349592,-0.1116 1.970579,-0.33073 0.639248,-0.2192 1.214578,-0.50973 1.725979,-0.87505 0.529663,-0.36527 0.959698,-0.77672 1.288456,-1.23333 0.0092,-0.0127 0.01853,-0.0253 0.02753,-0.038 v 2.2014 h 2.849099 v -14.38305 h -2.849072 v 2.20828 c -0.284817,-0.47266 -0.649781,-0.89053 -1.095532,-1.25056 -0.456609,-0.40186 -0.994751,-0.71101 -1.615736,-0.93016 -0.620989,-0.21914 -1.30787,-0.32727 -2.056706,-0.32727 z m 56.220073,0 c -1.40636,0 -2.66857,0.3278 -3.78269,0.98529 -1.09585,0.63926 -1.96177,1.52376 -2.60102,2.65615 -0.63926,1.11412 -0.96118,2.39493 -0.96118,3.83781 0,1.44288 0.32193,2.72952 0.96118,3.86192 0.63926,1.11411 1.50517,1.99863 2.60102,2.65615 1.11412,0.63926 2.37633,0.96117 3.78269,0.96117 1.38809,0 2.62826,-0.32193 3.72412,-0.96117 1.11411,-0.65753 1.99277,-1.54204 2.63203,-2.65615 0.63926,-1.1324 0.95773,-2.41904 0.95773,-3.86192 0,-1.44288 -0.31846,-2.72369 -0.95773,-3.83781 -0.63926,-1.13239 -1.51792,-2.0169 -2.63203,-2.65615 -1.09586,-0.65752 -2.33603,-0.98529 -3.72412,-0.98529 z m 17.91435,0 c -0.7671,0 -1.51561,0.1732 -2.24618,0.5202 -0.73058,0.32873 -1.35824,0.76464 -1.8879,1.31257 -0.22233,0.22233 -0.41413,0.45426 -0.57533,0.6959 v -2.22896 h -2.8215 v 14.38316 h 0.70968 0.71313 1.39869 v -8.71258 c 0,-0.47486 0.0895,-0.9142 0.27213,-1.31601 0.20093,-0.42007 0.46707,-0.78505 0.79581,-1.09553 0.347,-0.31047 0.74917,-0.54527 1.20578,-0.70969 0.45659,-0.1826 0.95756,-0.2756 1.50549,-0.2756 0.67578,-0.0367 1.24181,0.0716 1.69842,0.32726 0.4566,0.2374 0.7937,0.63027 1.01285,1.17822 0.21913,0.52966 0.33073,1.20725 0.33073,2.02914 v 8.57478 h 2.82151 v -8.76767 c 0,-1.3333 -0.18247,-2.43748 -0.5478,-3.31416 -0.36526,-0.87668 -0.91272,-1.52638 -1.64329,-1.94646 -0.73057,-0.43833 -1.64642,-0.6546 -2.74228,-0.6546 z m 14.87925,0 c -1.3333,0 -2.53043,0.3278 -3.58976,0.98529 -1.04106,0.65753 -1.87324,1.55132 -2.49422,2.68371 -0.60273,1.13239 -0.90262,2.4039 -0.90262,3.81025 0,1.40635 0.29987,2.67441 0.90262,3.8068 0.62099,1.13239 1.45316,2.02619 2.49422,2.68371 1.05933,0.65753 2.25646,0.98873 3.58976,0.98873 1.16892,0 2.29169,-0.26613 3.36928,-0.79581 1.09586,-0.52967 1.93389,-1.20725 2.51835,-2.02915 l -1.56062,-1.91546 c -0.38353,0.47487 -0.79498,0.87703 -1.23333,1.20578 -0.43833,0.32873 -0.89282,0.57286 -1.3677,0.73724 -0.4566,0.1644 -0.93312,0.24807 -1.42626,0.24807 -0.84016,0 -1.60726,-0.21967 -2.3013,-0.658 -0.69404,-0.43833 -1.25077,-1.02296 -1.67086,-1.75354 -0.42006,-0.74883 -0.63046,-1.58686 -0.63046,-2.51834 0,-0.93148 0.20107,-1.77295 0.60286,-2.52179 0.4018,-0.74883 0.93996,-1.33345 1.61574,-1.75354 0.69404,-0.43833 1.47974,-0.658 2.35643,-0.658 0.47486,0 0.96997,0.10227 1.48137,0.30314 0.5114,0.20093 0.99377,0.47292 1.45038,0.81992 0.45659,0.347 0.83087,0.73057 1.12309,1.15066 l 1.56062,-1.91891 c -0.54793,-0.89495 -1.34878,-1.59698 -2.40811,-2.10838 -1.04106,-0.52966 -2.20102,-0.79237 -3.47952,-0.79237 z m 14.32804,0 c -1.26023,0 -2.40159,0.31847 -3.42439,0.95773 -1.00454,0.63927 -1.80883,1.52376 -2.41156,2.65615 -0.58446,1.11412 -0.87848,2.39493 -0.87848,3.83781 0,1.42461 0.29406,2.70197 0.87848,3.83436 0.58447,1.13239 1.36087,2.02619 2.32887,2.68371 0.98627,0.65753 2.07186,0.98873 3.25904,0.98873 0.69404,0 1.35304,-0.1116 1.97402,-0.33073 0.63926,-0.2192 1.21458,-0.50973 1.72598,-0.87505 0.52966,-0.36527 0.95626,-0.77672 1.28501,-1.23333 0.009,-0.0127 0.0187,-0.0253 0.0273,-0.038 v 2.2014 h 2.84907 v -14.38316 h -2.84907 v 2.20829 c -0.28479,-0.47267 -0.64979,-0.89054 -1.09553,-1.25057 -0.45659,-0.40186 -0.99475,-0.71101 -1.61573,-0.93016 -0.621,-0.21913 -1.30442,-0.32727 -2.05327,-0.32727 z m 55.3657,0 c -1.26024,0 -2.4016,0.31847 -3.4244,0.95773 -1.00454,0.63927 -1.80539,1.52376 -2.4081,2.65615 -0.58446,1.11412 -0.87849,2.39493 -0.87849,3.83781 0,1.42461 0.29406,2.70197 0.87849,3.83436 0.58446,1.13239 1.35741,2.02619 2.32542,2.68371 0.98627,0.65753 2.0753,0.98873 3.26247,0.98873 v -0.003 c 0.69405,0 1.3496,-0.10813 1.97059,-0.32726 0.63926,-0.2192 1.21458,-0.50973 1.72598,-0.87505 0.52966,-0.36527 0.9597,-0.77672 1.28845,-1.23333 0.009,-0.0127 0.0187,-0.0253 0.0273,-0.038 v 2.2014 h 2.84907 V 185.3416 h -2.84907 v 2.20829 c -0.2848,-0.47267 -0.64979,-0.89054 -1.09554,-1.25057 -0.45659,-0.40186 -0.99474,-0.71101 -1.61573,-0.93016 -0.621,-0.21913 -1.30787,-0.32727 -2.0567,-0.32727 z m 19.09601,0 c -0.7671,0 -1.51561,0.1732 -2.24618,0.5202 -0.73058,0.32873 -1.36168,0.76464 -1.89135,1.31257 -0.22233,0.22233 -0.41413,0.45426 -0.57533,0.6959 v -2.22896 h -2.82151 v 14.38316 h 0.71313 0.71313 1.39525 v -8.71258 c 0,-0.47486 0.093,-0.9142 0.2756,-1.31601 0.20093,-0.42007 0.46706,-0.78505 0.79581,-1.09553 0.34699,-0.31047 0.74572,-0.54527 1.20233,-0.70969 0.45659,-0.1826 0.96101,-0.2756 1.50894,-0.2756 0.67577,-0.0367 1.24181,0.0716 1.69842,0.32726 0.4566,0.2374 0.79369,0.63027 1.01284,1.17822 0.21914,0.52966 0.33074,1.20725 0.33074,2.02914 v 8.57478 h 2.82151 v -8.76767 c 0,-1.3333 -0.18247,-2.43748 -0.5478,-3.31416 -0.36526,-0.87668 -0.91617,-1.52638 -1.64674,-1.94646 -0.73057,-0.43833 -1.64297,-0.6546 -2.73883,-0.6546 z m 22.16557,0 c -1.26024,0 -2.40159,0.31847 -3.4244,0.95773 -1.00453,0.63927 -1.80882,1.52376 -2.41155,2.65615 -0.58446,1.11412 -0.87849,2.39493 -0.87849,3.83781 0,1.42461 0.29406,2.70197 0.87849,3.83436 0.58447,1.13239 1.36086,2.02619 2.32887,2.68371 0.98627,0.65753 2.07186,0.98873 3.25904,0.98873 v -0.003 c 0.69404,0 1.35303,-0.10813 1.97402,-0.32726 0.63926,-0.2192 1.21458,-0.50973 1.72598,-0.87505 0.52966,-0.36527 0.95626,-0.77672 1.28501,-1.23333 0.009,-0.0127 0.0187,-0.0253 0.0273,-0.038 v 2.2014 h 2.84907 V 185.3416 h -2.84907 v 2.20829 c -0.28479,-0.47267 -0.64979,-0.89054 -1.09553,-1.25057 -0.45659,-0.40186 -0.99475,-0.71101 -1.61573,-0.93016 -0.621,-0.21913 -1.30443,-0.32727 -2.05327,-0.32727 z m 12.7123,0.024 c -0.56619,0 -1.02412,0.1918 -1.37113,0.57533 -0.347,0.38353 -0.5202,0.87866 -0.5202,1.48138 0,0.65753 0.16386,1.16777 0.49266,1.53306 0.32873,0.34699 0.79598,0.52019 1.3987,0.52019 0.56619,0 1.02067,-0.1918 1.36769,-0.57533 0.347,-0.38353 0.5202,-0.87521 0.5202,-1.47793 0,-0.65753 -0.16387,-1.15848 -0.49266,-1.5055 -0.32873,-0.36526 -0.79253,-0.55119 -1.39526,-0.5512 z m -90.71209,0.2756 v 2.43911 h 7.17607 l -7.17607,9.58762 v 2.35643 h 10.65904 v -2.43911 h -7.37589 l 7.21053,-9.64275 v -2.3013 z m 65.06701,0 v 14.38316 h 2.82151 v -14.38316 z m -45.09251,2.13594 c 0.85843,0 1.61623,0.21967 2.27375,0.658 0.65753,0.43833 1.16777,1.04156 1.53305,1.80866 0.38353,0.74884 0.57533,1.6089 0.57533,2.57691 0,0.968 -0.1918,1.83392 -0.57533,2.60103 -0.36526,0.74882 -0.87554,1.34274 -1.53305,1.78109 -0.65753,0.43833 -1.41532,0.658 -2.27375,0.658 -0.85842,0 -1.61967,-0.21967 -2.27719,-0.658 -0.65753,-0.43833 -1.17706,-1.03226 -1.56061,-1.78109 -0.36527,-0.76711 -0.54773,-1.63303 -0.54773,-2.60103 0,-0.96801 0.18246,-1.82807 0.54773,-2.57691 0.38353,-0.7671 0.9031,-1.37031 1.56061,-1.80866 0.65753,-0.43833 1.41877,-0.658 2.27719,-0.658 z m -85.72363,0.1378 c 0.85842,0 1.62552,0.2104 2.3013,0.63046 0.67578,0.42007 1.20462,1.00471 1.58818,1.75354 0.38353,0.73058 0.566,1.57205 0.54773,2.5218 0.018,0.93147 -0.1642,1.7695 -0.54773,2.51834 -0.38353,0.73056 -0.9124,1.31518 -1.58818,1.75354 -0.67578,0.42006 -1.44288,0.63046 -2.3013,0.63046 -0.85843,0 -1.63482,-0.21033 -2.32887,-0.63046 -0.67577,-0.43833 -1.20807,-1.02297 -1.59162,-1.75354 -0.38353,-0.74884 -0.56606,-1.58687 -0.54773,-2.51834 -0.018,-0.93148 0.1642,-1.76366 0.54773,-2.49424 0.38353,-0.74883 0.91585,-1.33345 1.59162,-1.75354 0.69405,-0.43833 1.47044,-0.65799 2.32887,-0.65799 z m -55.727428,0.0273 c 0.858422,0 1.61623,0.2104 2.273744,0.63047 0.657515,0.42006 1.171215,0.99541 1.536501,1.72598 0.38355,0.73057 0.575329,1.56274 0.575329,2.49423 0,0.94974 -0.191779,1.79706 -0.575329,2.5459 -0.365284,0.73057 -0.878986,1.3059 -1.536501,1.72598 -0.657514,0.42006 -1.415322,0.63046 -2.273744,0.63046 -0.840158,0 -1.588671,-0.21033 -2.246185,-0.63046 -0.639255,-0.42006 -1.149507,-0.99541 -1.533056,-1.72598 -0.365283,-0.74884 -0.547762,-1.59616 -0.547762,-2.5459 0,-0.93149 0.182479,-1.76366 0.547762,-2.49423 0.383551,-0.73057 0.893805,-1.30589 1.533056,-1.72598 0.657514,-0.42007 1.406027,-0.63047 2.246185,-0.63047 z m 103.341718,0 c 0.85842,0 1.61623,0.2104 2.27374,0.63047 0.65753,0.42006 1.16777,0.99541 1.53306,1.72598 0.38353,0.73057 0.57533,1.56274 0.57533,2.49423 0,0.94974 -0.1918,1.79706 -0.57533,2.5459 -0.36527,0.73057 -0.87554,1.3059 -1.53306,1.72598 -0.65753,0.42006 -1.41532,0.63046 -2.27374,0.63046 -0.84016,0 -1.58867,-0.21033 -2.24619,-0.63046 -0.63926,-0.42006 -1.15294,-0.99541 -1.5365,-1.72598 -0.36526,-0.74884 -0.54773,-1.59616 -0.54773,-2.5459 0,-0.93149 0.18247,-1.76366 0.54773,-2.49423 0.38353,-0.73057 0.89725,-1.30589 1.5365,-1.72598 0.65753,-0.42007 1.40603,-0.63047 2.24619,-0.63047 z m 55.36914,0 c 0.85842,0 1.61623,0.2104 2.27374,0.63047 0.65753,0.42006 1.16777,0.99541 1.53306,1.72598 0.38353,0.73057 0.57532,1.56274 0.57532,2.49423 0,0.94974 -0.19179,1.79706 -0.57532,2.5459 -0.36527,0.73057 -0.87554,1.3059 -1.53306,1.72598 -0.65753,0.42006 -1.41532,0.63046 -2.27374,0.63046 -0.84016,0 -1.59212,-0.21033 -2.24963,-0.63046 -0.63926,-0.42006 -1.1495,-0.99541 -1.53306,-1.72598 -0.36526,-0.74884 -0.54779,-1.59616 -0.54779,-2.5459 0,-0.93149 0.18246,-1.76366 0.54779,-2.49423 0.38354,-0.73057 0.89381,-1.30589 1.53306,-1.72598 0.65753,-0.42007 1.40947,-0.63047 2.24963,-0.63047 z m 41.25813,0 c 0.85842,0 1.61624,0.2104 2.27375,0.63047 0.65753,0.42006 1.16777,0.99541 1.53306,1.72598 0.38353,0.73057 0.57533,1.56274 0.57533,2.49423 0,0.94974 -0.1918,1.79706 -0.57533,2.5459 -0.36527,0.73057 -0.87554,1.3059 -1.53306,1.72598 -0.65753,0.42006 -1.41533,0.63046 -2.27375,0.63046 -0.84015,0 -1.58866,-0.21033 -2.24618,-0.63046 -0.63926,-0.42006 -1.15295,-0.99541 -1.5365,-1.72598 -0.36526,-0.74884 -0.54773,-1.59616 -0.54773,-2.5459 0,-0.93149 0.18247,-1.76366 0.54773,-2.49423 0.38353,-0.73057 0.89725,-1.30589 1.5365,-1.72598 0.65753,-0.42007 1.40603,-0.63047 2.24618,-0.63047 z m 12.21966,8.2475 c -0.56619,0 -1.02412,0.1918 -1.37113,0.57533 -0.347,0.38353 -0.5202,0.87521 -0.5202,1.47793 0,0.65753 0.16386,1.16777 0.49266,1.53306 0.32873,0.34699 0.79598,0.52366 1.3987,0.52366 0.56619,0 1.02067,-0.1918 1.36769,-0.57533 0.347,-0.38353 0.5202,-0.87865 0.5202,-1.48137 0,-0.65753 -0.16387,-1.15848 -0.49266,-1.5055 -0.32873,-0.36526 -0.79253,-0.54779 -1.39526,-0.54779 z m 18.46212,0.58219 v 3.52776 h 3.52775 v -3.52776 z m 9.79433,0 v 3.52776 h 16.84639 v -3.52776 z m 23.10952,0 v 3.52776 h 3.52775 v -3.52776 z" />
   </g>
</svg>
